<svg width="59" height="59" viewBox="0 0 59 59" fill="none" xmlns="http://www.w3.org/2000/svg">
    <mask id="mask0_536_104" style="mask-type:alpha" maskUnits="userSpaceOnUse" x="4" y="0" width="52" height="59">
        <path fill-rule="evenodd" clip-rule="evenodd" d="M28.466 1.06923C29.3412 0.576939 30.4098 0.576939 31.285 1.06923L42.7445 7.51522C42.7734 7.53078 42.8019 7.54685 42.8302 7.56342L54.2446 13.984C54.7018 14.231 55.0976 14.6049 55.3735 15.0892L55.392 15.1223C55.6447 15.5795 55.7597 16.0761 55.7505 16.564V42.3875C55.7505 43.4262 55.1903 44.3841 54.285 44.8933L31.3299 57.8055C30.9032 58.0562 30.4062 58.2 29.8755 58.2C29.3449 58.2 28.8478 58.0562 28.4211 57.8055L5.46601 44.8933C4.56074 44.3841 4.00051 43.4262 4.00051 42.3875V16.564C3.99127 16.0737 4.10743 15.5747 4.36264 15.1157L4.37523 15.0933C4.65124 14.6069 5.04792 14.2317 5.50645 13.984L28.466 1.06923ZM35.5113 10.0438L29.8755 6.87364L12.7397 16.5125L18.3755 19.6826L35.5113 10.0438ZM24.2397 22.9813L41.3755 13.3424L47.0113 16.5125L29.8755 26.1514L24.2397 22.9813ZM16.9209 25.4617C16.9491 25.4782 16.9776 25.4942 17.0064 25.5098L27.0005 31.1314V50.4092L9.75051 40.7061V21.4283L16.9209 25.4617ZM32.7505 31.1314V50.4092L50.0005 40.7061V21.4283L32.7505 31.1314Z" fill="black"/>
    </mask>
    <g mask="url(#mask0_536_104)">
        <rect x="-22" y="-19.3" width="100" height="100" fill="#4F4F4F"/>
        <ellipse cx="38" cy="40.7" rx="43" ry="38" fill="url(#paint0_radial_536_104)" fill-opacity="0.5"/>
        <ellipse cx="17" cy="41.7" rx="47" ry="37" fill="url(#paint1_radial_536_104)" fill-opacity="0.5"/>
        <ellipse cx="14.5" cy="-4.29999" rx="61.5" ry="44" fill="url(#paint2_radial_536_104)" fill-opacity="0.5"/>
    </g>
    <defs>
        <radialGradient id="paint0_radial_536_104" cx="0" cy="0" r="1" gradientUnits="userSpaceOnUse" gradientTransform="translate(38 40.7) rotate(90) scale(38 43)">
            <stop stop-color="#4E22FF" stop-opacity="0.65"/>
            <stop offset="1" stop-color="#4E22FF" stop-opacity="0"/>
        </radialGradient>
        <radialGradient id="paint1_radial_536_104" cx="0" cy="0" r="1" gradientUnits="userSpaceOnUse" gradientTransform="translate(17 41.7) rotate(90) scale(37 47)">
            <stop stop-color="#22FF7A" stop-opacity="0.5"/>
            <stop offset="1" stop-color="#22FF7A" stop-opacity="0"/>
        </radialGradient>
        <radialGradient id="paint2_radial_536_104" cx="0" cy="0" r="1" gradientUnits="userSpaceOnUse" gradientTransform="translate(14.5 -4.29999) rotate(90) scale(44 61.5)">
            <stop stop-color="#FF2222" stop-opacity="0.64"/>
            <stop offset="1" stop-color="#FF2222" stop-opacity="0"/>
        </radialGradient>
    </defs>
</svg>
