<svg width="510" height="279" viewBox="0 0 510 279" fill="none" xmlns="http://www.w3.org/2000/svg">
<rect width="510" height="279" fill="white"/>
<path d="M510 0H0V279H510V0Z" fill="white"/>
<path d="M510 0H0V279H510V0Z" fill="white"/>
<path d="M82 0H0V279H82V0Z" fill="#E6E6E6"/>
<path d="M47.0441 51.7382V34.7732H46.6961L43.3611 42.4002H40.9541V42.2262L44.7531 33.7002H49.4801V51.7382H55.2221V54.0002H41.3021V51.7382H47.0441ZM55.0191 94.7382V97.0002H41.2731V93.5202C41.2731 92.5922 41.4277 91.7899 41.7371 91.1132C42.0464 90.4172 42.4814 89.8275 43.0421 89.3442C43.6221 88.8415 44.3181 88.4259 45.1301 88.0972C45.9421 87.7685 46.8604 87.4882 47.8851 87.2562C49.6057 86.8695 50.8431 86.3185 51.5971 85.6032C52.3704 84.8879 52.7571 84.0082 52.7571 82.9642V82.7902C52.7571 82.2682 52.6701 81.7559 52.4961 81.2532C52.3221 80.7505 52.0514 80.2962 51.6841 79.8902C51.3167 79.4842 50.8431 79.1652 50.2631 78.9332C49.7024 78.6819 49.0257 78.5562 48.2331 78.5562C46.7444 78.5562 45.5844 79.0105 44.7531 79.9192C43.9411 80.8279 43.5351 82.0362 43.5351 83.5442V84.8202H41.0991V83.3702C41.0991 82.4422 41.2537 81.5529 41.5631 80.7022C41.8724 79.8515 42.3267 79.0975 42.9261 78.4402C43.5254 77.7829 44.2697 77.2609 45.1591 76.8742C46.0484 76.4875 47.0731 76.2942 48.2331 76.2942C49.4124 76.2942 50.4371 76.4779 51.3071 76.8452C52.1771 77.1932 52.9021 77.6669 53.4821 78.2662C54.0621 78.8462 54.4874 79.5132 54.7581 80.2672C55.0481 81.0019 55.1931 81.7559 55.1931 82.5292V83.0512C55.1931 84.5979 54.7097 85.9222 53.7431 87.0242C52.7764 88.1069 51.2297 88.8802 49.1031 89.3442C47.2471 89.7502 45.8841 90.2915 45.0141 90.9682C44.1441 91.6255 43.7091 92.5922 43.7091 93.8682V94.7382H55.0191ZM46.1161 129.908V126.544L52.7281 122.31V121.962H41.2441V119.7H54.8161V123.412L48.2041 127.646V127.994H49.3641C50.1374 127.994 50.8817 128.12 51.5971 128.371C52.3124 128.622 52.9407 128.99 53.4821 129.473C54.0427 129.956 54.4874 130.556 54.8161 131.271C55.1641 131.967 55.3381 132.779 55.3381 133.707V134.229C55.3381 135.099 55.1641 135.911 54.8161 136.665C54.4681 137.419 53.9847 138.076 53.3661 138.637C52.7474 139.178 52.0127 139.613 51.1621 139.942C50.3307 140.251 49.4221 140.406 48.4361 140.406C47.2954 140.406 46.2707 140.232 45.3621 139.884C44.4534 139.536 43.6801 139.062 43.0421 138.463C42.4041 137.844 41.9111 137.129 41.5631 136.317C41.2344 135.486 41.0701 134.606 41.0701 133.678V132.112H43.5061V133.504C43.5061 134.239 43.6221 134.896 43.8541 135.476C44.1054 136.037 44.4437 136.52 44.8691 136.926C45.3137 137.313 45.8357 137.612 46.4351 137.825C47.0344 138.038 47.6821 138.144 48.3781 138.144C49.0161 138.144 49.6057 138.038 50.1471 137.825C50.7077 137.612 51.1911 137.322 51.5971 136.955C52.0031 136.568 52.3221 136.124 52.5541 135.621C52.7861 135.099 52.9021 134.548 52.9021 133.968V133.794C52.9021 132.576 52.5154 131.629 51.7421 130.952C50.9687 130.256 50.0021 129.908 48.8421 129.908H46.1161ZM47.7691 162.7H52.4961V176.91H55.6281V179.172H52.4961V183H50.0601V179.172H40.6641V175.808L47.7691 162.7ZM42.7521 176.562V176.91H50.0601V163.744H49.7121L42.7521 176.562ZM41.5051 216.43V205.7H54.2071V207.962H43.8831V215.212H44.2311C44.4244 214.825 44.6757 214.458 44.9851 214.11C45.2944 213.743 45.6521 213.424 46.0581 213.153C46.4834 212.882 46.9571 212.67 47.4791 212.515C48.0011 212.341 48.5811 212.254 49.2191 212.254C50.1471 212.254 50.9977 212.409 51.7711 212.718C52.5637 213.027 53.2404 213.462 53.8011 214.023C54.3617 214.584 54.7967 215.26 55.1061 216.053C55.4347 216.846 55.5991 217.725 55.5991 218.692V219.214C55.5991 220.181 55.4444 221.099 55.1351 221.969C54.8257 222.82 54.3714 223.583 53.7721 224.26C53.1727 224.917 52.4284 225.439 51.5391 225.826C50.6497 226.213 49.6251 226.406 48.4651 226.406C47.2857 226.406 46.2417 226.232 45.3331 225.884C44.4244 225.536 43.6607 225.053 43.0421 224.434C42.4234 223.815 41.9497 223.09 41.6211 222.259C41.3117 221.408 41.1571 220.49 41.1571 219.504V218.692H43.5931V219.33C43.5931 220.935 44.0377 222.143 44.9271 222.955C45.8357 223.748 47.0151 224.144 48.4651 224.144C49.2384 224.144 49.9151 224.009 50.4951 223.738C51.0944 223.448 51.5874 223.071 51.9741 222.607C52.3801 222.124 52.6797 221.573 52.8731 220.954C53.0664 220.316 53.1631 219.659 53.1631 218.982V218.808C53.1631 218.209 53.0567 217.648 52.8441 217.126C52.6507 216.604 52.3704 216.15 52.0031 215.763C51.6551 215.376 51.2201 215.077 50.6981 214.864C50.1954 214.632 49.6444 214.516 49.0451 214.516C48.6391 214.516 48.2621 214.574 47.9141 214.69C47.5854 214.806 47.2954 214.961 47.0441 215.154C46.7927 215.328 46.5801 215.531 46.4061 215.763C46.2514 215.995 46.1451 216.217 46.0871 216.43H41.5051ZM52.3801 254.616C52.3801 253.359 51.9934 252.354 51.2201 251.6C50.4467 250.827 49.3737 250.44 48.0011 250.44C47.3437 250.44 46.7347 250.556 46.1741 250.788C45.6327 251.02 45.1591 251.358 44.7531 251.803C44.3664 252.228 44.0571 252.741 43.8251 253.34C43.6124 253.939 43.5061 254.597 43.5061 255.312V258.328H43.8541C44.3181 257.477 44.9754 256.81 45.8261 256.327C46.6961 255.844 47.6627 255.602 48.7261 255.602C49.6541 255.602 50.5144 255.757 51.3071 256.066C52.0997 256.356 52.7764 256.791 53.3371 257.371C53.9171 257.951 54.3617 258.657 54.6711 259.488C54.9997 260.3 55.1641 261.228 55.1641 262.272V262.62C55.1641 263.625 54.9804 264.544 54.6131 265.375C54.2651 266.206 53.7721 266.922 53.1341 267.521C52.5154 268.12 51.7711 268.584 50.9011 268.913C50.0504 269.242 49.1224 269.406 48.1171 269.406C47.1117 269.406 46.1741 269.242 45.3041 268.913C44.4534 268.584 43.7091 268.13 43.0711 267.55C42.4524 266.951 41.9594 266.245 41.5921 265.433C41.2441 264.602 41.0701 263.693 41.0701 262.707V255.312C41.0701 254.249 41.2537 253.282 41.6211 252.412C41.9884 251.542 42.4911 250.807 43.1291 250.208C43.7671 249.589 44.5017 249.116 45.3331 248.787C46.1837 248.458 47.0924 248.294 48.0591 248.294C49.0257 248.294 49.9247 248.439 50.7561 248.729C51.5874 249.019 52.3027 249.444 52.9021 250.005C53.5014 250.546 53.9654 251.213 54.2941 252.006C54.6421 252.779 54.8161 253.649 54.8161 254.616H52.3801ZM48.1171 267.26C48.8131 267.26 49.4414 267.154 50.0021 266.941C50.5821 266.709 51.0751 266.39 51.4811 265.984C51.8871 265.578 52.1964 265.095 52.4091 264.534C52.6217 263.973 52.7281 263.355 52.7281 262.678V262.33C52.7281 261.653 52.6121 261.035 52.3801 260.474C52.1481 259.913 51.8291 259.43 51.4231 259.024C51.0171 258.618 50.5241 258.309 49.9441 258.096C49.3834 257.864 48.7744 257.748 48.1171 257.748C47.4597 257.748 46.8507 257.864 46.2901 258.096C45.7294 258.328 45.2364 258.647 44.8111 259.053C44.4051 259.459 44.0861 259.933 43.8541 260.474C43.6221 261.015 43.5061 261.595 43.5061 262.214V262.765C43.5061 263.403 43.6124 264.002 43.8251 264.563C44.0377 265.104 44.3471 265.578 44.7531 265.984C45.1591 266.39 45.6424 266.709 46.2031 266.941C46.7831 267.154 47.4211 267.26 48.1171 267.26Z" fill="#070707" fill-opacity="0.31"/>
<path d="M128.979 48.8962C128.824 49.6889 128.554 50.4235 128.167 51.1002C127.8 51.7769 127.326 52.3665 126.746 52.8692C126.166 53.3525 125.489 53.7295 124.716 54.0002C123.943 54.2709 123.082 54.4062 122.135 54.4062C121.13 54.4062 120.173 54.2419 119.264 53.9132C118.375 53.5845 117.592 53.1109 116.915 52.4922C116.238 51.8542 115.697 51.0809 115.291 50.1722C114.904 49.2635 114.711 48.2195 114.711 47.0402V46.6922C114.711 45.5322 114.904 44.4882 115.291 43.5602C115.697 42.6322 116.238 41.8492 116.915 41.2112C117.592 40.5732 118.375 40.0802 119.264 39.7322C120.173 39.3842 121.13 39.2102 122.135 39.2102C123.044 39.2102 123.885 39.3455 124.658 39.6162C125.431 39.8869 126.108 40.2735 126.688 40.7762C127.287 41.2595 127.771 41.8395 128.138 42.5162C128.525 43.1929 128.786 43.9275 128.921 44.7202L126.659 45.2422C126.601 44.7395 126.456 44.2562 126.224 43.7922C126.011 43.3089 125.712 42.8932 125.325 42.5452C124.958 42.1779 124.503 41.8879 123.962 41.6752C123.421 41.4625 122.792 41.3562 122.077 41.3562C121.381 41.3562 120.724 41.4915 120.105 41.7622C119.506 42.0135 118.974 42.3809 118.51 42.8642C118.046 43.3282 117.679 43.8889 117.408 44.5462C117.157 45.2035 117.031 45.9189 117.031 46.6922V47.0402C117.031 47.8522 117.157 48.5869 117.408 49.2442C117.679 49.8822 118.046 50.4235 118.51 50.8682C118.974 51.3129 119.515 51.6609 120.134 51.9122C120.753 52.1442 121.42 52.2602 122.135 52.2602C122.85 52.2602 123.469 52.1539 123.991 51.9412C124.532 51.7092 124.987 51.4192 125.354 51.0712C125.741 50.7039 126.04 50.2882 126.253 49.8242C126.485 49.3602 126.64 48.8769 126.717 48.3742L128.979 48.8962ZM133.28 51.9122H138.5V35.7882H133.454V33.7002H140.762V51.9122H145.982V54.0002H133.28V51.9122ZM161.477 51.5642H161.129C160.665 52.5309 160.017 53.2462 159.186 53.7102C158.374 54.1742 157.513 54.4062 156.605 54.4062C155.657 54.4062 154.778 54.2515 153.966 53.9422C153.154 53.6135 152.438 53.1399 151.82 52.5212C151.22 51.8832 150.747 51.1099 150.399 50.2012C150.051 49.2925 149.877 48.2389 149.877 47.0402V46.5762C149.877 45.3969 150.051 44.3529 150.399 43.4442C150.747 42.5355 151.22 41.7719 151.82 41.1532C152.438 40.5152 153.154 40.0319 153.966 39.7032C154.778 39.3745 155.638 39.2102 156.547 39.2102C157.533 39.2102 158.422 39.4325 159.215 39.8772C160.027 40.3025 160.665 40.9695 161.129 41.8782H161.477V39.6162H163.739V51.0422C163.739 51.6222 164 51.9122 164.522 51.9122H165.247V54.0002H163.71C163.052 54.0002 162.511 53.7875 162.086 53.3622C161.68 52.9369 161.477 52.3955 161.477 51.7382V51.5642ZM156.837 52.2602C157.513 52.2602 158.132 52.1345 158.693 51.8832C159.273 51.6319 159.766 51.2742 160.172 50.8102C160.578 50.3462 160.897 49.7952 161.129 49.1572C161.361 48.4999 161.477 47.7749 161.477 46.9822V46.6342C161.477 45.8609 161.361 45.1552 161.129 44.5172C160.897 43.8599 160.568 43.2992 160.143 42.8352C159.737 42.3712 159.244 42.0135 158.664 41.7622C158.103 41.4915 157.494 41.3562 156.837 41.3562C156.16 41.3562 155.541 41.4819 154.981 41.7332C154.42 41.9845 153.927 42.3422 153.502 42.8062C153.096 43.2509 152.777 43.8019 152.545 44.4592C152.313 45.0972 152.197 45.8029 152.197 46.5762V47.0402C152.197 48.6835 152.622 49.9692 153.473 50.8972C154.343 51.8059 155.464 52.2602 156.837 52.2602ZM171.781 43.3282C171.781 44.0242 172.071 44.5559 172.651 44.9232C173.25 45.2905 174.333 45.5322 175.899 45.6482C177.581 45.7835 178.857 46.1895 179.727 46.8662C180.616 47.5235 181.061 48.4902 181.061 49.7662V49.9402C181.061 50.6362 180.916 51.2645 180.626 51.8252C180.355 52.3665 179.968 52.8305 179.466 53.2172C178.982 53.6039 178.383 53.8939 177.668 54.0872C176.972 54.2999 176.208 54.4062 175.377 54.4062C174.255 54.4062 173.289 54.2612 172.477 53.9712C171.684 53.6619 171.017 53.2655 170.476 52.7822C169.954 52.2795 169.557 51.7189 169.287 51.1002C169.016 50.4622 168.861 49.8242 168.823 49.1862L170.969 48.6642C171.065 49.7662 171.491 50.6555 172.245 51.3322C172.999 51.9895 174.004 52.3182 175.261 52.3182C176.324 52.3182 177.175 52.1152 177.813 51.7092C178.47 51.2839 178.799 50.6942 178.799 49.9402C178.799 49.1282 178.48 48.5482 177.842 48.2002C177.204 47.8522 176.169 47.6299 174.739 47.5332C173.076 47.4172 171.8 47.0305 170.911 46.3732C170.021 45.7159 169.577 44.7589 169.577 43.5022V43.3282C169.577 42.6515 169.722 42.0619 170.012 41.5592C170.302 41.0372 170.688 40.6022 171.172 40.2542C171.674 39.9062 172.235 39.6452 172.854 39.4712C173.472 39.2972 174.12 39.2102 174.797 39.2102C175.744 39.2102 176.575 39.3455 177.291 39.6162C178.006 39.8675 178.605 40.2059 179.089 40.6312C179.572 41.0372 179.939 41.5109 180.191 42.0522C180.461 42.5935 180.635 43.1349 180.713 43.6762L178.567 44.1982C178.47 43.2702 178.093 42.5452 177.436 42.0232C176.798 41.5012 175.957 41.2402 174.913 41.2402C174.507 41.2402 174.11 41.2885 173.724 41.3852C173.356 41.4625 173.028 41.5882 172.738 41.7622C172.448 41.9362 172.216 42.1585 172.042 42.4292C171.868 42.6805 171.781 42.9802 171.781 43.3282ZM189.537 43.3282C189.537 44.0242 189.827 44.5559 190.407 44.9232C191.007 45.2905 192.089 45.5322 193.655 45.6482C195.337 45.7835 196.613 46.1895 197.483 46.8662C198.373 47.5235 198.817 48.4902 198.817 49.7662V49.9402C198.817 50.6362 198.672 51.2645 198.382 51.8252C198.112 52.3665 197.725 52.8305 197.222 53.2172C196.739 53.6039 196.14 53.8939 195.424 54.0872C194.728 54.2999 193.965 54.4062 193.133 54.4062C192.012 54.4062 191.045 54.2612 190.233 53.9712C189.441 53.6619 188.774 53.2655 188.232 52.7822C187.71 52.2795 187.314 51.7189 187.043 51.1002C186.773 50.4622 186.618 49.8242 186.579 49.1862L188.725 48.6642C188.822 49.7662 189.247 50.6555 190.001 51.3322C190.755 51.9895 191.761 52.3182 193.017 52.3182C194.081 52.3182 194.931 52.1152 195.569 51.7092C196.227 51.2839 196.555 50.6942 196.555 49.9402C196.555 49.1282 196.236 48.5482 195.598 48.2002C194.96 47.8522 193.926 47.6299 192.495 47.5332C190.833 47.4172 189.557 47.0305 188.667 46.3732C187.778 45.7159 187.333 44.7589 187.333 43.5022V43.3282C187.333 42.6515 187.478 42.0619 187.768 41.5592C188.058 41.0372 188.445 40.6022 188.928 40.2542C189.431 39.9062 189.992 39.6452 190.61 39.4712C191.229 39.2972 191.877 39.2102 192.553 39.2102C193.501 39.2102 194.332 39.3455 195.047 39.6162C195.763 39.8675 196.362 40.2059 196.845 40.6312C197.329 41.0372 197.696 41.5109 197.947 42.0522C198.218 42.5935 198.392 43.1349 198.469 43.6762L196.323 44.1982C196.227 43.2702 195.85 42.5452 195.192 42.0232C194.554 41.5012 193.713 41.2402 192.669 41.2402C192.263 41.2402 191.867 41.2885 191.48 41.3852C191.113 41.4625 190.784 41.5882 190.494 41.7622C190.204 41.9362 189.972 42.1585 189.798 42.4292C189.624 42.6805 189.537 42.9802 189.537 43.3282ZM188.29 102.8H186.028V82.6162H188.29V84.8782H188.638C189.141 84.0082 189.837 83.3509 190.726 82.9062C191.616 82.4422 192.582 82.2102 193.626 82.2102C194.516 82.2102 195.357 82.3745 196.149 82.7032C196.942 83.0319 197.638 83.5055 198.237 84.1242C198.856 84.7429 199.339 85.5065 199.687 86.4152C200.055 87.3239 200.238 88.3582 200.238 89.5182V90.0982C200.238 91.2775 200.064 92.3215 199.716 93.2302C199.368 94.1389 198.885 94.9025 198.266 95.5212C197.667 96.1399 196.961 96.6135 196.149 96.9422C195.337 97.2515 194.477 97.4062 193.568 97.4062C193.104 97.4062 192.631 97.3482 192.147 97.2322C191.664 97.1355 191.2 96.9809 190.755 96.7682C190.33 96.5362 189.934 96.2655 189.566 95.9562C189.199 95.6275 188.89 95.2409 188.638 94.7962H188.29V102.8ZM193.104 95.2602C193.8 95.2602 194.438 95.1442 195.018 94.9122C195.598 94.6609 196.101 94.3129 196.526 93.8682C196.971 93.4235 197.309 92.8822 197.541 92.2442C197.793 91.6062 197.918 90.8909 197.918 90.0982V89.5182C197.918 88.7449 197.793 88.0489 197.541 87.4302C197.309 86.7922 196.971 86.2509 196.526 85.8062C196.101 85.3422 195.589 84.9845 194.989 84.7332C194.409 84.4819 193.781 84.3562 193.104 84.3562C192.428 84.3562 191.799 84.4915 191.219 84.7622C190.639 85.0135 190.127 85.3712 189.682 85.8352C189.257 86.2992 188.919 86.8599 188.667 87.5172C188.416 88.1552 188.29 88.8609 188.29 89.6342V89.9822C188.29 90.7749 188.416 91.4999 188.667 92.1572C188.919 92.7952 189.257 93.3462 189.682 93.8102C190.127 94.2742 190.639 94.6319 191.219 94.8832C191.799 95.1345 192.428 95.2602 193.104 95.2602ZM214.573 82.6162H216.835V97.0002H214.573V94.3902H214.225C213.761 95.3182 213.152 96.0529 212.398 96.5942C211.644 97.1355 210.687 97.4062 209.527 97.4062C208.735 97.4062 208 97.2709 207.323 97.0002C206.666 96.7489 206.096 96.3622 205.612 95.8402C205.148 95.3182 204.781 94.6705 204.51 93.8972C204.259 93.1239 204.133 92.2249 204.133 91.2002V82.6162H206.395V90.9102C206.395 92.4182 206.705 93.5202 207.323 94.2162C207.942 94.9122 208.889 95.2602 210.165 95.2602C211.538 95.2602 212.611 94.7962 213.384 93.8682C214.177 92.9209 214.573 91.6642 214.573 90.0982V82.6162ZM223.804 97.0002H221.542V76.7002H223.804V84.8782H224.152C224.655 84.0082 225.351 83.3509 226.24 82.9062C227.129 82.4422 228.096 82.2102 229.14 82.2102C230.029 82.2102 230.87 82.3745 231.663 82.7032C232.456 83.0319 233.152 83.5055 233.751 84.1242C234.37 84.7429 234.853 85.5065 235.201 86.4152C235.568 87.3239 235.752 88.3582 235.752 89.5182V90.0982C235.752 91.2775 235.578 92.3215 235.23 93.2302C234.882 94.1389 234.399 94.9025 233.78 95.5212C233.181 96.1399 232.475 96.6135 231.663 96.9422C230.851 97.2515 229.991 97.4062 229.082 97.4062C228.618 97.4062 228.144 97.3482 227.661 97.2322C227.178 97.1355 226.714 96.9809 226.269 96.7682C225.844 96.5362 225.447 96.2655 225.08 95.9562C224.713 95.6275 224.403 95.2409 224.152 94.7962H223.804V97.0002ZM228.618 95.2602C229.314 95.2602 229.952 95.1442 230.532 94.9122C231.112 94.6609 231.615 94.3129 232.04 93.8682C232.485 93.4235 232.823 92.8822 233.055 92.2442C233.306 91.6062 233.432 90.8909 233.432 90.0982V89.5182C233.432 88.7449 233.306 88.0489 233.055 87.4302C232.823 86.7922 232.485 86.2509 232.04 85.8062C231.615 85.3422 231.102 84.9845 230.503 84.7332C229.923 84.4819 229.295 84.3562 228.618 84.3562C227.941 84.3562 227.313 84.4915 226.733 84.7622C226.153 85.0135 225.641 85.3712 225.196 85.8352C224.771 86.2992 224.432 86.8599 224.181 87.5172C223.93 88.1552 223.804 88.8609 223.804 89.6342V89.9822C223.804 90.7749 223.93 91.4999 224.181 92.1572C224.432 92.7952 224.771 93.3462 225.196 93.8102C225.641 94.2742 226.153 94.6319 226.733 94.8832C227.313 95.1345 227.941 95.2602 228.618 95.2602ZM239.821 94.9122H245.041V78.7882H239.995V76.7002H247.303V94.9122H252.523V97.0002H239.821V94.9122ZM262.044 78.3242C262.044 77.7635 262.237 77.2899 262.624 76.9032C263.03 76.4972 263.513 76.2942 264.074 76.2942C264.634 76.2942 265.108 76.4972 265.495 76.9032C265.901 77.2899 266.104 77.7635 266.104 78.3242C266.104 78.8849 265.901 79.3682 265.495 79.7742C265.108 80.1609 264.634 80.3542 264.074 80.3542C263.513 80.3542 263.03 80.1609 262.624 79.7742C262.237 79.3682 262.044 78.8849 262.044 78.3242ZM257.926 94.9122H262.972V84.7042H258.448V82.6162H265.234V94.9122H269.932V97.0002H257.926V94.9122ZM288.791 91.8962C288.636 92.6889 288.365 93.4235 287.979 94.1002C287.611 94.7769 287.138 95.3665 286.558 95.8692C285.978 96.3525 285.301 96.7295 284.528 97.0002C283.754 97.2709 282.894 97.4062 281.947 97.4062C280.941 97.4062 279.984 97.2419 279.076 96.9132C278.186 96.5845 277.403 96.1109 276.727 95.4922C276.05 94.8542 275.509 94.0809 275.103 93.1722C274.716 92.2635 274.523 91.2195 274.523 90.0402V89.6922C274.523 88.5322 274.716 87.4882 275.103 86.5602C275.509 85.6322 276.05 84.8492 276.727 84.2112C277.403 83.5732 278.186 83.0802 279.076 82.7322C279.984 82.3842 280.941 82.2102 281.947 82.2102C282.855 82.2102 283.696 82.3455 284.47 82.6162C285.243 82.8869 285.92 83.2735 286.5 83.7762C287.099 84.2595 287.582 84.8395 287.95 85.5162C288.336 86.1929 288.597 86.9275 288.733 87.7202L286.471 88.2422C286.413 87.7395 286.268 87.2562 286.036 86.7922C285.823 86.3089 285.523 85.8932 285.137 85.5452C284.769 85.1779 284.315 84.8879 283.774 84.6752C283.232 84.4625 282.604 84.3562 281.889 84.3562C281.193 84.3562 280.535 84.4915 279.917 84.7622C279.317 85.0135 278.786 85.3809 278.322 85.8642C277.858 86.3282 277.49 86.8889 277.22 87.5462C276.968 88.2035 276.843 88.9189 276.843 89.6922V90.0402C276.843 90.8522 276.968 91.5869 277.22 92.2442C277.49 92.8822 277.858 93.4235 278.322 93.8682C278.786 94.3129 279.327 94.6609 279.946 94.9122C280.564 95.1442 281.231 95.2602 281.947 95.2602C282.662 95.2602 283.281 95.1539 283.803 94.9412C284.344 94.7092 284.798 94.4192 285.166 94.0712C285.552 93.7039 285.852 93.2882 286.065 92.8242C286.297 92.3602 286.451 91.8769 286.529 91.3742L288.791 91.8962ZM313.835 86.3282C313.835 87.0242 314.125 87.5559 314.705 87.9232C315.305 88.2905 316.387 88.5322 317.953 88.6482C319.635 88.7835 320.911 89.1895 321.781 89.8662C322.671 90.5235 323.115 91.4902 323.115 92.7662V92.9402C323.115 93.6362 322.97 94.2645 322.68 94.8252C322.41 95.3665 322.023 95.8305 321.52 96.2172C321.037 96.6039 320.438 96.8939 319.722 97.0872C319.026 97.2999 318.263 97.4062 317.431 97.4062C316.31 97.4062 315.343 97.2612 314.531 96.9712C313.739 96.6619 313.072 96.2655 312.53 95.7822C312.008 95.2795 311.612 94.7189 311.341 94.1002C311.071 93.4622 310.916 92.8242 310.877 92.1862L313.023 91.6642C313.12 92.7662 313.545 93.6555 314.299 94.3322C315.053 94.9895 316.059 95.3182 317.315 95.3182C318.379 95.3182 319.229 95.1152 319.867 94.7092C320.525 94.2839 320.853 93.6942 320.853 92.9402C320.853 92.1282 320.534 91.5482 319.896 91.2002C319.258 90.8522 318.224 90.6299 316.793 90.5332C315.131 90.4172 313.855 90.0305 312.965 89.3732C312.076 88.7159 311.631 87.7589 311.631 86.5022V86.3282C311.631 85.6515 311.776 85.0619 312.066 84.5592C312.356 84.0372 312.743 83.6022 313.226 83.2542C313.729 82.9062 314.29 82.6452 314.908 82.4712C315.527 82.2972 316.175 82.2102 316.851 82.2102C317.799 82.2102 318.63 82.3455 319.345 82.6162C320.061 82.8675 320.66 83.2059 321.143 83.6312C321.627 84.0372 321.994 84.5109 322.245 85.0522C322.516 85.5935 322.69 86.1349 322.767 86.6762L320.621 87.1982C320.525 86.2702 320.148 85.5452 319.49 85.0232C318.852 84.5012 318.011 84.2402 316.967 84.2402C316.561 84.2402 316.165 84.2885 315.778 84.3852C315.411 84.4625 315.082 84.5882 314.792 84.7622C314.502 84.9362 314.27 85.1585 314.096 85.4292C313.922 85.6805 313.835 85.9802 313.835 86.3282ZM328.112 82.6162H332.636V76.7002H334.898V82.6162H340.466V84.7042H334.898V94.0422C334.898 94.6222 335.159 94.9122 335.681 94.9122H339.77V97.0002H334.869C334.212 97.0002 333.67 96.7875 333.245 96.3622C332.839 95.9369 332.636 95.3955 332.636 94.7382V84.7042H328.112V82.6162ZM356.802 94.5642H356.454C355.99 95.5309 355.342 96.2462 354.511 96.7102C353.699 97.1742 352.839 97.4062 351.93 97.4062C350.983 97.4062 350.103 97.2515 349.291 96.9422C348.479 96.6135 347.764 96.1399 347.145 95.5212C346.546 94.8832 346.072 94.1099 345.724 93.2012C345.376 92.2925 345.202 91.2389 345.202 90.0402V89.5762C345.202 88.3969 345.376 87.3529 345.724 86.4442C346.072 85.5355 346.546 84.7719 347.145 84.1532C347.764 83.5152 348.479 83.0319 349.291 82.7032C350.103 82.3745 350.963 82.2102 351.872 82.2102C352.858 82.2102 353.747 82.4325 354.54 82.8772C355.352 83.3025 355.99 83.9695 356.454 84.8782H356.802V82.6162H359.064V94.0422C359.064 94.6222 359.325 94.9122 359.847 94.9122H360.572V97.0002H359.035C358.378 97.0002 357.836 96.7875 357.411 96.3622C357.005 95.9369 356.802 95.3955 356.802 94.7382V94.5642ZM352.162 95.2602C352.839 95.2602 353.457 95.1345 354.018 94.8832C354.598 94.6319 355.091 94.2742 355.497 93.8102C355.903 93.3462 356.222 92.7952 356.454 92.1572C356.686 91.4999 356.802 90.7749 356.802 89.9822V89.6342C356.802 88.8609 356.686 88.1552 356.454 87.5172C356.222 86.8599 355.893 86.2992 355.468 85.8352C355.062 85.3712 354.569 85.0135 353.989 84.7622C353.428 84.4915 352.819 84.3562 352.162 84.3562C351.485 84.3562 350.867 84.4819 350.306 84.7332C349.745 84.9845 349.252 85.3422 348.827 85.8062C348.421 86.2509 348.102 86.8019 347.87 87.4592C347.638 88.0972 347.522 88.8029 347.522 89.5762V90.0402C347.522 91.6835 347.947 92.9692 348.798 93.8972C349.668 94.8059 350.789 95.2602 352.162 95.2602ZM363.626 82.6162H368.15V76.7002H370.412V82.6162H375.98V84.7042H370.412V94.0422C370.412 94.6222 370.673 94.9122 371.195 94.9122H375.284V97.0002H370.383C369.725 97.0002 369.184 96.7875 368.759 96.3622C368.353 95.9369 368.15 95.3955 368.15 94.7382V84.7042H363.626V82.6162ZM386.342 78.3242C386.342 77.7635 386.535 77.2899 386.922 76.9032C387.328 76.4972 387.811 76.2942 388.372 76.2942C388.932 76.2942 389.406 76.4972 389.793 76.9032C390.199 77.2899 390.402 77.7635 390.402 78.3242C390.402 78.8849 390.199 79.3682 389.793 79.7742C389.406 80.1609 388.932 80.3542 388.372 80.3542C387.811 80.3542 387.328 80.1609 386.922 79.7742C386.535 79.3682 386.342 78.8849 386.342 78.3242ZM382.224 94.9122H387.27V84.7042H382.746V82.6162H389.532V94.9122H394.23V97.0002H382.224V94.9122ZM413.088 91.8962C412.934 92.6889 412.663 93.4235 412.276 94.1002C411.909 94.7769 411.435 95.3665 410.855 95.8692C410.275 96.3525 409.599 96.7295 408.825 97.0002C408.052 97.2709 407.192 97.4062 406.244 97.4062C405.239 97.4062 404.282 97.2419 403.373 96.9132C402.484 96.5845 401.701 96.1109 401.024 95.4922C400.348 94.8542 399.806 94.0809 399.4 93.1722C399.014 92.2635 398.82 91.2195 398.82 90.0402V89.6922C398.82 88.5322 399.014 87.4882 399.4 86.5602C399.806 85.6322 400.348 84.8492 401.024 84.2112C401.701 83.5732 402.484 83.0802 403.373 82.7322C404.282 82.3842 405.239 82.2102 406.244 82.2102C407.153 82.2102 407.994 82.3455 408.767 82.6162C409.541 82.8869 410.217 83.2735 410.797 83.7762C411.397 84.2595 411.88 84.8395 412.247 85.5162C412.634 86.1929 412.895 86.9275 413.03 87.7202L410.768 88.2422C410.71 87.7395 410.565 87.2562 410.333 86.7922C410.121 86.3089 409.821 85.8932 409.434 85.5452C409.067 85.1779 408.613 84.8879 408.071 84.6752C407.53 84.4625 406.902 84.3562 406.186 84.3562C405.49 84.3562 404.833 84.4915 404.214 84.7622C403.615 85.0135 403.083 85.3809 402.619 85.8642C402.155 86.3282 401.788 86.8889 401.517 87.5462C401.266 88.2035 401.14 88.9189 401.14 89.6922V90.0402C401.14 90.8522 401.266 91.5869 401.517 92.2442C401.788 92.8822 402.155 93.4235 402.619 93.8682C403.083 94.3129 403.625 94.6609 404.243 94.9122C404.862 95.1442 405.529 95.2602 406.244 95.2602C406.96 95.2602 407.578 95.1539 408.1 94.9412C408.642 94.7092 409.096 94.4192 409.463 94.0712C409.85 93.7039 410.15 93.2882 410.362 92.8242C410.594 92.3602 410.749 91.8769 410.826 91.3742L413.088 91.8962ZM443.701 97.0002H439.235L434.218 82.6162H436.886L441.294 95.9562H441.642L446.05 82.6162H448.718L443.701 97.0002ZM466.475 89.9822C466.475 91.1809 466.272 92.2442 465.866 93.1722C465.479 94.0809 464.957 94.8542 464.3 95.4922C463.643 96.1109 462.869 96.5845 461.98 96.9132C461.11 97.2419 460.201 97.4062 459.254 97.4062C458.287 97.4062 457.369 97.2419 456.499 96.9132C455.629 96.5845 454.865 96.1109 454.208 95.4922C453.551 94.8542 453.019 94.0809 452.613 93.1722C452.226 92.2442 452.033 91.1809 452.033 89.9822V89.6342C452.033 88.4549 452.226 87.4109 452.613 86.5022C453.019 85.5742 453.551 84.7912 454.208 84.1532C454.885 83.5152 455.658 83.0319 456.528 82.7032C457.398 82.3745 458.307 82.2102 459.254 82.2102C460.201 82.2102 461.11 82.3745 461.98 82.7032C462.85 83.0319 463.614 83.5152 464.271 84.1532C464.948 84.7912 465.479 85.5742 465.866 86.5022C466.272 87.4109 466.475 88.4549 466.475 89.6342V89.9822ZM459.254 95.2602C459.95 95.2602 460.588 95.1442 461.168 94.9122C461.767 94.6609 462.289 94.3032 462.734 93.8392C463.179 93.3752 463.527 92.8242 463.778 92.1862C464.029 91.5289 464.155 90.7942 464.155 89.9822V89.6342C464.155 88.8609 464.029 88.1552 463.778 87.5172C463.527 86.8599 463.179 86.2992 462.734 85.8352C462.289 85.3712 461.767 85.0135 461.168 84.7622C460.569 84.4915 459.931 84.3562 459.254 84.3562C458.577 84.3562 457.939 84.4915 457.34 84.7622C456.741 85.0135 456.219 85.3712 455.774 85.8352C455.329 86.2992 454.981 86.8599 454.73 87.5172C454.479 88.1552 454.353 88.8609 454.353 89.6342V89.9822C454.353 90.7942 454.479 91.5289 454.73 92.1862C454.981 92.8242 455.329 93.3752 455.774 93.8392C456.219 94.3032 456.731 94.6609 457.311 94.9122C457.91 95.1442 458.558 95.2602 459.254 95.2602ZM475.126 78.3242C475.126 77.7635 475.319 77.2899 475.706 76.9032C476.112 76.4972 476.595 76.2942 477.156 76.2942C477.716 76.2942 478.19 76.4972 478.577 76.9032C478.983 77.2899 479.186 77.7635 479.186 78.3242C479.186 78.8849 478.983 79.3682 478.577 79.7742C478.19 80.1609 477.716 80.3542 477.156 80.3542C476.595 80.3542 476.112 80.1609 475.706 79.7742C475.319 79.3682 475.126 78.8849 475.126 78.3242ZM471.008 94.9122H476.054V84.7042H471.53V82.6162H478.316V94.9122H483.014V97.0002H471.008V94.9122ZM499.553 94.7962H499.205C498.973 95.2409 498.673 95.6275 498.306 95.9562C497.958 96.2849 497.571 96.5555 497.146 96.7682C496.74 96.9809 496.305 97.1355 495.841 97.2322C495.377 97.3482 494.932 97.4062 494.507 97.4062C493.54 97.4062 492.641 97.2419 491.81 96.9132C490.978 96.5845 490.244 96.1109 489.606 95.4922C488.987 94.8735 488.494 94.1099 488.127 93.2012C487.779 92.2732 487.605 91.2195 487.605 90.0402V89.5762C487.605 88.4162 487.788 87.3819 488.156 86.4732C488.523 85.5452 489.016 84.7719 489.635 84.1532C490.253 83.5152 490.978 83.0319 491.81 82.7032C492.641 82.3745 493.521 82.2102 494.449 82.2102C495.435 82.2102 496.353 82.4325 497.204 82.8772C498.074 83.3025 498.741 83.9695 499.205 84.8782H499.553V76.7002H501.815V97.0002H499.553V94.7962ZM494.739 95.2602C495.415 95.2602 496.044 95.1345 496.624 94.8832C497.204 94.6319 497.706 94.2742 498.132 93.8102C498.576 93.3462 498.924 92.7952 499.176 92.1572C499.427 91.4999 499.553 90.7749 499.553 89.9822V89.6342C499.553 88.8609 499.427 88.1552 499.176 87.5172C498.924 86.8599 498.576 86.2992 498.132 85.8352C497.706 85.3712 497.194 85.0135 496.595 84.7622C496.015 84.4915 495.396 84.3562 494.739 84.3562C494.062 84.3562 493.424 84.4819 492.825 84.7332C492.245 84.9845 491.732 85.3422 491.288 85.8062C490.862 86.2702 490.524 86.8212 490.273 87.4592C490.041 88.0972 489.925 88.8029 489.925 89.5762V90.0402C489.925 90.8522 490.041 91.5772 490.273 92.2152C490.524 92.8532 490.862 93.4042 491.288 93.8682C491.732 94.3129 492.245 94.6609 492.825 94.9122C493.405 95.1442 494.043 95.2602 494.739 95.2602Z" fill="#5C87FF"/>
<path d="M221.281 33.6998H235.549V35.9618H229.633V53.9998H227.197V35.9618H221.281V33.6998ZM241.474 47.5038C241.532 48.9345 241.977 50.0848 242.808 50.9548C243.639 51.8248 244.799 52.2598 246.288 52.2598C246.965 52.2598 247.554 52.1825 248.057 52.0278C248.56 51.8731 248.985 51.6605 249.333 51.3898C249.7 51.1191 249.99 50.8098 250.203 50.4618C250.435 50.0945 250.619 49.7078 250.754 49.3018L252.9 49.8818C252.494 51.2158 251.74 52.3081 250.638 53.1588C249.555 53.9901 248.086 54.4058 246.23 54.4058C245.205 54.4058 244.258 54.2318 243.388 53.8838C242.537 53.5165 241.803 53.0041 241.184 52.3468C240.565 51.6895 240.082 50.9065 239.734 49.9978C239.386 49.0891 239.212 48.0838 239.212 46.9818V46.2858C239.212 45.2805 239.386 44.3428 239.734 43.4728C240.101 42.6028 240.604 41.8585 241.242 41.2398C241.88 40.6018 242.624 40.1088 243.475 39.7608C244.345 39.3935 245.283 39.2098 246.288 39.2098C247.467 39.2098 248.482 39.4321 249.333 39.8768C250.203 40.3021 250.909 40.8338 251.45 41.4718C252.011 42.1098 252.417 42.8058 252.668 43.5598C252.939 44.3138 253.074 45.0098 253.074 45.6478V47.5038H241.474ZM246.288 41.3558C245.65 41.3558 245.051 41.4621 244.49 41.6748C243.949 41.8681 243.465 42.1485 243.04 42.5158C242.634 42.8831 242.296 43.3181 242.025 43.8208C241.774 44.3041 241.609 44.8358 241.532 45.4158H250.812C250.773 44.7971 250.619 44.2365 250.348 43.7338C250.097 43.2311 249.758 42.8058 249.333 42.4578C248.927 42.1098 248.453 41.8391 247.912 41.6458C247.39 41.4525 246.849 41.3558 246.288 41.3558ZM260.565 43.3278C260.565 44.0238 260.855 44.5555 261.435 44.9228C262.034 45.2901 263.117 45.5318 264.683 45.6478C266.365 45.7831 267.641 46.1891 268.511 46.8658C269.4 47.5231 269.845 48.4898 269.845 49.7658V49.9398C269.845 50.6358 269.7 51.2641 269.41 51.8248C269.139 52.3661 268.752 52.8301 268.25 53.2168C267.766 53.6035 267.167 53.8935 266.452 54.0868C265.756 54.2995 264.992 54.4058 264.161 54.4058C263.039 54.4058 262.073 54.2608 261.261 53.9708C260.468 53.6615 259.801 53.2651 259.26 52.7818C258.738 52.2791 258.341 51.7185 258.071 51.0998C257.8 50.4618 257.645 49.8238 257.607 49.1858L259.753 48.6638C259.849 49.7658 260.275 50.6551 261.029 51.3318C261.783 51.9891 262.788 52.3178 264.045 52.3178C265.108 52.3178 265.959 52.1148 266.597 51.7088C267.254 51.2835 267.583 50.6938 267.583 49.9398C267.583 49.1278 267.264 48.5478 266.626 48.1998C265.988 47.8518 264.953 47.6295 263.523 47.5328C261.86 47.4168 260.584 47.0301 259.695 46.3728C258.805 45.7155 258.361 44.7585 258.361 43.5018V43.3278C258.361 42.6511 258.506 42.0615 258.796 41.5588C259.086 41.0368 259.472 40.6018 259.956 40.2538C260.458 39.9058 261.019 39.6448 261.638 39.4708C262.256 39.2968 262.904 39.2098 263.581 39.2098C264.528 39.2098 265.359 39.3451 266.075 39.6158C266.79 39.8671 267.389 40.2055 267.873 40.6308C268.356 41.0368 268.723 41.5105 268.975 42.0518C269.245 42.5931 269.419 43.1345 269.497 43.6758L267.351 44.1978C267.254 43.2698 266.877 42.5448 266.22 42.0228C265.582 41.5008 264.741 41.2398 263.697 41.2398C263.291 41.2398 262.894 41.2881 262.508 41.3848C262.14 41.4621 261.812 41.5878 261.522 41.7618C261.232 41.9358 261 42.1581 260.826 42.4288C260.652 42.6801 260.565 42.9798 260.565 43.3278ZM274.842 39.6158H279.366V33.6998H281.628V39.6158H287.196V41.7038H281.628V51.0418C281.628 51.6218 281.889 51.9118 282.411 51.9118H286.5V53.9998H281.599C280.941 53.9998 280.4 53.7871 279.975 53.3618C279.569 52.9365 279.366 52.3951 279.366 51.7378V41.7038H274.842V39.6158ZM316.387 31.4378C316.387 30.7805 316.59 30.2391 316.996 29.8138C317.422 29.3885 317.963 29.1758 318.62 29.1758H321.433V31.2638H319.432C318.91 31.2638 318.649 31.5538 318.649 32.1338V41.4138C318.649 42.0711 318.437 42.6125 318.011 43.0378C317.605 43.4631 317.064 43.6758 316.387 43.6758H316.039V44.0238H316.387C317.064 44.0238 317.605 44.2365 318.011 44.6618C318.437 45.0871 318.649 45.6285 318.649 46.2858V55.5658C318.649 56.1458 318.91 56.4358 319.432 56.4358H321.433V58.5238H318.62C317.963 58.5238 317.422 58.3111 316.996 57.8858C316.59 57.4605 316.387 56.9191 316.387 56.2618V46.2568C316.387 45.6961 316.126 45.4158 315.604 45.4158H314.125V42.2838H315.604C316.126 42.2838 316.387 42.0035 316.387 41.4428V31.4378ZM250.957 125.558C250.957 124.901 250.822 124.321 250.551 123.818C250.3 123.315 249.952 122.9 249.507 122.571C249.062 122.242 248.55 121.991 247.97 121.817C247.39 121.643 246.781 121.556 246.143 121.556C245.582 121.556 245.051 121.633 244.548 121.788C244.045 121.923 243.591 122.126 243.185 122.397C242.798 122.668 242.489 123.006 242.257 123.412C242.025 123.799 241.909 124.253 241.909 124.775V124.949C241.909 125.51 242.025 125.993 242.257 126.399C242.489 126.786 242.827 127.124 243.272 127.414C243.736 127.685 244.306 127.917 244.983 128.11C245.66 128.284 246.452 128.439 247.361 128.574C249.488 128.903 251.054 129.531 252.059 130.459C253.064 131.368 253.567 132.595 253.567 134.142V134.49C253.567 135.36 253.412 136.162 253.103 136.897C252.813 137.612 252.368 138.231 251.769 138.753C251.189 139.275 250.464 139.681 249.594 139.971C248.724 140.261 247.719 140.406 246.578 140.406C245.283 140.406 244.132 140.222 243.127 139.855C242.141 139.468 241.31 138.946 240.633 138.289C239.976 137.612 239.473 136.829 239.125 135.94C238.777 135.031 238.603 134.045 238.603 132.982V132.112H241.039V132.808C241.039 134.587 241.522 135.921 242.489 136.81C243.475 137.699 244.838 138.144 246.578 138.144C248.086 138.144 249.217 137.815 249.971 137.158C250.744 136.481 251.131 135.592 251.131 134.49V134.316C251.131 133.253 250.735 132.441 249.942 131.88C249.169 131.319 247.902 130.913 246.143 130.662C245.118 130.527 244.19 130.324 243.359 130.053C242.547 129.763 241.851 129.396 241.271 128.951C240.691 128.487 240.246 127.936 239.937 127.298C239.628 126.66 239.473 125.906 239.473 125.036V124.688C239.473 123.895 239.637 123.17 239.966 122.513C240.295 121.856 240.749 121.285 241.329 120.802C241.928 120.319 242.634 119.951 243.446 119.7C244.277 119.429 245.186 119.294 246.172 119.294C247.313 119.294 248.328 119.458 249.217 119.787C250.126 120.116 250.889 120.56 251.508 121.121C252.127 121.662 252.591 122.31 252.9 123.064C253.229 123.799 253.393 124.572 253.393 125.384V126.602H250.957V125.558ZM268.018 137.39H267.67C267.206 138.318 266.597 139.053 265.843 139.594C265.089 140.135 264.132 140.406 262.972 140.406C262.179 140.406 261.444 140.271 260.768 140C260.11 139.749 259.54 139.362 259.057 138.84C258.593 138.318 258.225 137.67 257.955 136.897C257.703 136.124 257.578 135.225 257.578 134.2V125.616H259.84V133.91C259.84 135.418 260.149 136.52 260.768 137.216C261.386 137.912 262.334 138.26 263.61 138.26C264.982 138.26 266.055 137.796 266.829 136.868C267.621 135.921 268.018 134.664 268.018 133.098V125.616H270.28V143.538C270.28 144.195 270.067 144.737 269.642 145.162C269.236 145.587 268.704 145.8 268.047 145.8H259.84V143.712H267.235C267.757 143.712 268.018 143.422 268.018 142.842V137.39ZM278.322 129.328C278.322 130.024 278.612 130.556 279.192 130.923C279.791 131.29 280.874 131.532 282.44 131.648C284.122 131.783 285.398 132.189 286.268 132.866C287.157 133.523 287.602 134.49 287.602 135.766V135.94C287.602 136.636 287.457 137.264 287.167 137.825C286.896 138.366 286.509 138.83 286.007 139.217C285.523 139.604 284.924 139.894 284.209 140.087C283.513 140.3 282.749 140.406 281.918 140.406C280.796 140.406 279.83 140.261 279.018 139.971C278.225 139.662 277.558 139.265 277.017 138.782C276.495 138.279 276.098 137.719 275.828 137.1C275.557 136.462 275.402 135.824 275.364 135.186L277.51 134.664C277.606 135.766 278.032 136.655 278.786 137.332C279.54 137.989 280.545 138.318 281.802 138.318C282.865 138.318 283.716 138.115 284.354 137.709C285.011 137.284 285.34 136.694 285.34 135.94C285.34 135.128 285.021 134.548 284.383 134.2C283.745 133.852 282.71 133.63 281.28 133.533C279.617 133.417 278.341 133.03 277.452 132.373C276.562 131.716 276.118 130.759 276.118 129.502V129.328C276.118 128.651 276.263 128.062 276.553 127.559C276.843 127.037 277.229 126.602 277.713 126.254C278.215 125.906 278.776 125.645 279.395 125.471C280.013 125.297 280.661 125.21 281.338 125.21C282.285 125.21 283.116 125.345 283.832 125.616C284.547 125.867 285.146 126.206 285.63 126.631C286.113 127.037 286.48 127.511 286.732 128.052C287.002 128.593 287.176 129.135 287.254 129.676L285.108 130.198C285.011 129.27 284.634 128.545 283.977 128.023C283.339 127.501 282.498 127.24 281.454 127.24C281.048 127.24 280.651 127.288 280.265 127.385C279.897 127.462 279.569 127.588 279.279 127.762C278.989 127.936 278.757 128.158 278.583 128.429C278.409 128.68 278.322 128.98 278.322 129.328ZM292.598 125.616H297.122V119.7H299.384V125.616H304.952V127.704H299.384V137.042C299.384 137.622 299.645 137.912 300.167 137.912H304.256V140H299.355C298.698 140 298.157 139.787 297.731 139.362C297.325 138.937 297.122 138.395 297.122 137.738V127.704H292.598V125.616ZM312.501 133.504C312.559 134.935 313.004 136.085 313.835 136.955C314.667 137.825 315.827 138.26 317.315 138.26C317.992 138.26 318.582 138.183 319.084 138.028C319.587 137.873 320.012 137.661 320.36 137.39C320.728 137.119 321.018 136.81 321.23 136.462C321.462 136.095 321.646 135.708 321.781 135.302L323.927 135.882C323.521 137.216 322.767 138.308 321.665 139.159C320.583 139.99 319.113 140.406 317.257 140.406C316.233 140.406 315.285 140.232 314.415 139.884C313.565 139.517 312.83 139.004 312.211 138.347C311.593 137.69 311.109 136.907 310.761 135.998C310.413 135.089 310.239 134.084 310.239 132.982V132.286C310.239 131.281 310.413 130.343 310.761 129.473C311.129 128.603 311.631 127.859 312.269 127.24C312.907 126.602 313.652 126.109 314.502 125.761C315.372 125.394 316.31 125.21 317.315 125.21C318.495 125.21 319.51 125.432 320.36 125.877C321.23 126.302 321.936 126.834 322.477 127.472C323.038 128.11 323.444 128.806 323.695 129.56C323.966 130.314 324.101 131.01 324.101 131.648V133.504H312.501ZM317.315 127.356C316.677 127.356 316.078 127.462 315.517 127.675C314.976 127.868 314.493 128.149 314.067 128.516C313.661 128.883 313.323 129.318 313.052 129.821C312.801 130.304 312.637 130.836 312.559 131.416H321.839C321.801 130.797 321.646 130.237 321.375 129.734C321.124 129.231 320.786 128.806 320.36 128.458C319.954 128.11 319.481 127.839 318.939 127.646C318.417 127.453 317.876 127.356 317.315 127.356ZM342.438 140H340.176V129.676C340.176 128.999 340.021 128.448 339.712 128.023C339.403 127.578 338.91 127.356 338.233 127.356C337.595 127.356 337.073 127.598 336.667 128.081C336.28 128.545 336.087 129.27 336.087 130.256V140H333.825V129.56C333.825 128.922 333.651 128.4 333.303 127.994C332.955 127.569 332.491 127.356 331.911 127.356C331.215 127.356 330.674 127.607 330.287 128.11C329.92 128.613 329.736 129.27 329.736 130.082V140H327.474V125.616H329.736V127.182H330.084C330.335 126.505 330.703 126.012 331.186 125.703C331.669 125.374 332.24 125.21 332.897 125.21C333.593 125.21 334.163 125.394 334.608 125.761C335.072 126.128 335.391 126.602 335.565 127.182H335.913C336.57 125.867 337.614 125.21 339.045 125.21C340.128 125.21 340.959 125.558 341.539 126.254C342.138 126.931 342.438 127.82 342.438 128.922V140ZM350.683 138.376C350.683 137.815 350.876 137.342 351.263 136.955C351.669 136.549 352.152 136.346 352.713 136.346C353.274 136.346 353.747 136.549 354.134 136.955C354.54 137.342 354.743 137.815 354.743 138.376C354.743 138.937 354.54 139.42 354.134 139.826C353.747 140.213 353.274 140.406 352.713 140.406C352.152 140.406 351.669 140.213 351.263 139.826C350.876 139.42 350.683 138.937 350.683 138.376ZM421.71 138.376C421.71 137.815 421.904 137.342 422.29 136.955C422.696 136.549 423.18 136.346 423.74 136.346C424.301 136.346 424.775 136.549 425.161 136.955C425.567 137.342 425.77 137.815 425.77 138.376C425.77 138.937 425.567 139.42 425.161 139.826C424.775 140.213 424.301 140.406 423.74 140.406C423.18 140.406 422.696 140.213 422.29 139.826C421.904 139.42 421.71 138.937 421.71 138.376ZM436.886 145.8H434.624V125.616H436.886V127.878H437.234C437.737 127.008 438.433 126.351 439.322 125.906C440.211 125.442 441.178 125.21 442.222 125.21C443.111 125.21 443.952 125.374 444.745 125.703C445.538 126.032 446.234 126.505 446.833 127.124C447.452 127.743 447.935 128.506 448.283 129.415C448.65 130.324 448.834 131.358 448.834 132.518V133.098C448.834 134.277 448.66 135.321 448.312 136.23C447.964 137.139 447.481 137.902 446.862 138.521C446.263 139.14 445.557 139.613 444.745 139.942C443.933 140.251 443.073 140.406 442.164 140.406C441.7 140.406 441.226 140.348 440.743 140.232C440.26 140.135 439.796 139.981 439.351 139.768C438.926 139.536 438.529 139.265 438.162 138.956C437.795 138.627 437.485 138.241 437.234 137.796H436.886V145.8ZM441.7 138.26C442.396 138.26 443.034 138.144 443.614 137.912C444.194 137.661 444.697 137.313 445.122 136.868C445.567 136.423 445.905 135.882 446.137 135.244C446.388 134.606 446.514 133.891 446.514 133.098V132.518C446.514 131.745 446.388 131.049 446.137 130.43C445.905 129.792 445.567 129.251 445.122 128.806C444.697 128.342 444.184 127.984 443.585 127.733C443.005 127.482 442.377 127.356 441.7 127.356C441.023 127.356 440.395 127.491 439.815 127.762C439.235 128.013 438.723 128.371 438.278 128.835C437.853 129.299 437.514 129.86 437.263 130.517C437.012 131.155 436.886 131.861 436.886 132.634V132.982C436.886 133.775 437.012 134.5 437.263 135.157C437.514 135.795 437.853 136.346 438.278 136.81C438.723 137.274 439.235 137.632 439.815 137.883C440.395 138.134 441.023 138.26 441.7 138.26ZM452.091 125.616H457.311V127.53H457.659C458.026 126.737 458.548 126.157 459.225 125.79C459.902 125.403 460.675 125.21 461.545 125.21C462.995 125.21 464.165 125.684 465.054 126.631C465.943 127.578 466.417 128.961 466.475 130.778L464.097 131.126C464.097 129.792 463.778 128.835 463.14 128.255C462.502 127.656 461.719 127.356 460.791 127.356C460.192 127.356 459.67 127.472 459.225 127.704C458.8 127.936 458.442 128.255 458.152 128.661C457.862 129.067 457.649 129.541 457.514 130.082C457.379 130.623 457.311 131.203 457.311 131.822V137.912H460.965V140H451.743V137.912H455.049V127.704H452.091V125.616ZM475.126 121.324C475.126 120.763 475.319 120.29 475.706 119.903C476.112 119.497 476.595 119.294 477.156 119.294C477.716 119.294 478.19 119.497 478.577 119.903C478.983 120.29 479.186 120.763 479.186 121.324C479.186 121.885 478.983 122.368 478.577 122.774C478.19 123.161 477.716 123.354 477.156 123.354C476.595 123.354 476.112 123.161 475.706 122.774C475.319 122.368 475.126 121.885 475.126 121.324ZM471.008 137.912H476.054V127.704H471.53V125.616H478.316V137.912H483.014V140H471.008V137.912ZM490.679 140H488.417V125.616H490.679V128.052H491.027C491.916 126.157 493.463 125.21 495.667 125.21C497.329 125.21 498.654 125.732 499.64 126.776C500.626 127.801 501.119 129.347 501.119 131.416V140H498.857V131.88C498.857 130.372 498.518 129.241 497.842 128.487C497.165 127.733 496.247 127.356 495.087 127.356C493.714 127.356 492.631 127.83 491.839 128.777C491.065 129.705 490.679 130.952 490.679 132.518V140ZM193.713 170.443C193.713 171.004 193.974 171.284 194.496 171.284H195.975V174.416H194.496C193.974 174.416 193.713 174.696 193.713 175.257V185.262C193.713 185.919 193.501 186.461 193.075 186.886C192.669 187.311 192.138 187.524 191.48 187.524H188.667V185.436H190.668C191.19 185.436 191.451 185.146 191.451 184.566V175.286C191.451 174.629 191.654 174.087 192.06 173.662C192.486 173.237 193.037 173.024 193.713 173.024H194.061V172.676H193.713C193.037 172.676 192.486 172.463 192.06 172.038C191.654 171.613 191.451 171.071 191.451 170.414V161.134C191.451 160.554 191.19 160.264 190.668 160.264H188.667V158.176H191.48C192.138 158.176 192.669 158.389 193.075 158.814C193.501 159.239 193.713 159.781 193.713 160.438V170.443ZM122.686 213.443C122.686 214.004 122.947 214.284 123.469 214.284H124.948V217.416H123.469C122.947 217.416 122.686 217.696 122.686 218.257V228.262C122.686 228.919 122.473 229.461 122.048 229.886C121.642 230.311 121.11 230.524 120.453 230.524H117.64V228.436H119.641C120.163 228.436 120.424 228.146 120.424 227.566V218.286C120.424 217.629 120.627 217.087 121.033 216.662C121.458 216.237 122.009 216.024 122.686 216.024H123.034V215.676H122.686C122.009 215.676 121.458 215.463 121.033 215.038C120.627 214.613 120.424 214.071 120.424 213.414V204.134C120.424 203.554 120.163 203.264 119.641 203.264H117.64V201.176H120.453C121.11 201.176 121.642 201.389 122.048 201.814C122.473 202.239 122.686 202.781 122.686 203.438V213.443Z" fill="#393939"/>
<path d="M377.691 132.982C377.691 134.181 377.488 135.244 377.082 136.172C376.695 137.081 376.173 137.854 375.516 138.492C374.858 139.111 374.085 139.584 373.196 139.913C372.326 140.242 371.417 140.406 370.47 140.406C369.503 140.406 368.585 140.242 367.715 139.913C366.845 139.584 366.081 139.111 365.424 138.492C364.766 137.854 364.235 137.081 363.829 136.172C363.442 135.244 363.249 134.181 363.249 132.982V132.634C363.249 131.455 363.442 130.411 363.829 129.502C364.235 128.574 364.766 127.791 365.424 127.153C366.1 126.515 366.874 126.032 367.744 125.703C368.614 125.374 369.522 125.21 370.47 125.21C371.417 125.21 372.326 125.374 373.196 125.703C374.066 126.032 374.829 126.515 375.487 127.153C376.163 127.791 376.695 128.574 377.082 129.502C377.488 130.411 377.691 131.455 377.691 132.634V132.982ZM370.47 138.26C371.166 138.26 371.804 138.144 372.384 137.912C372.983 137.661 373.505 137.303 373.95 136.839C374.394 136.375 374.742 135.824 374.994 135.186C375.245 134.529 375.371 133.794 375.371 132.982V132.634C375.371 131.861 375.245 131.155 374.994 130.517C374.742 129.86 374.394 129.299 373.95 128.835C373.505 128.371 372.983 128.013 372.384 127.762C371.784 127.491 371.146 127.356 370.47 127.356C369.793 127.356 369.155 127.491 368.556 127.762C367.956 128.013 367.434 128.371 366.99 128.835C366.545 129.299 366.197 129.86 365.946 130.517C365.694 131.155 365.569 131.861 365.569 132.634V132.982C365.569 133.794 365.694 134.529 365.946 135.186C366.197 135.824 366.545 136.375 366.99 136.839C367.434 137.303 367.947 137.661 368.527 137.912C369.126 138.144 369.774 138.26 370.47 138.26ZM392.142 125.616H394.404V140H392.142V137.39H391.794C391.33 138.318 390.721 139.053 389.967 139.594C389.213 140.135 388.256 140.406 387.096 140.406C386.303 140.406 385.568 140.271 384.892 140C384.234 139.749 383.664 139.362 383.181 138.84C382.717 138.318 382.349 137.67 382.079 136.897C381.827 136.124 381.702 135.225 381.702 134.2V125.616H383.964V133.91C383.964 135.418 384.273 136.52 384.892 137.216C385.51 137.912 386.458 138.26 387.734 138.26C389.106 138.26 390.179 137.796 390.953 136.868C391.745 135.921 392.142 134.664 392.142 133.098V125.616ZM399.139 125.616H403.663V119.7H405.925V125.616H411.493V127.704H405.925V137.042C405.925 137.622 406.186 137.912 406.708 137.912H410.797V140H405.896C405.239 140 404.698 139.787 404.272 139.362C403.866 138.937 403.663 138.395 403.663 137.738V127.704H399.139V125.616Z" fill="#EB2668"/>
<mask id="mask0_996:140" style="mask-type:alpha" maskUnits="userSpaceOnUse" x="-1" y="-1" width="512" height="281">
<path d="M510 0L0 279H510V0Z" fill="#C4C4C4" stroke="black"/>
</mask>
<g mask="url(#mask0_996:140)">
<path d="M510 0H0V279H510V0Z" fill="white"/>
<path d="M510 0H0V279H510V0Z" fill="#262B39"/>
<path d="M82 0H0V279H82V0Z" fill="white" fill-opacity="0.03"/>
<path d="M47.0441 51.7382V34.7732H46.6961L43.3611 42.4002H40.9541V42.2262L44.7531 33.7002H49.4801V51.7382H55.2221V54.0002H41.3021V51.7382H47.0441ZM55.0191 94.7382V97.0002H41.2731V93.5202C41.2731 92.5922 41.4277 91.7899 41.7371 91.1132C42.0464 90.4172 42.4814 89.8275 43.0421 89.3442C43.6221 88.8415 44.3181 88.4259 45.1301 88.0972C45.9421 87.7685 46.8604 87.4882 47.8851 87.2562C49.6057 86.8695 50.8431 86.3185 51.5971 85.6032C52.3704 84.8879 52.7571 84.0082 52.7571 82.9642V82.7902C52.7571 82.2682 52.6701 81.7559 52.4961 81.2532C52.3221 80.7505 52.0514 80.2962 51.6841 79.8902C51.3167 79.4842 50.8431 79.1652 50.2631 78.9332C49.7024 78.6819 49.0257 78.5562 48.2331 78.5562C46.7444 78.5562 45.5844 79.0105 44.7531 79.9192C43.9411 80.8279 43.5351 82.0362 43.5351 83.5442V84.8202H41.0991V83.3702C41.0991 82.4422 41.2537 81.5529 41.5631 80.7022C41.8724 79.8515 42.3267 79.0975 42.9261 78.4402C43.5254 77.7829 44.2697 77.2609 45.1591 76.8742C46.0484 76.4875 47.0731 76.2942 48.2331 76.2942C49.4124 76.2942 50.4371 76.4779 51.3071 76.8452C52.1771 77.1932 52.9021 77.6669 53.4821 78.2662C54.0621 78.8462 54.4874 79.5132 54.7581 80.2672C55.0481 81.0019 55.1931 81.7559 55.1931 82.5292V83.0512C55.1931 84.5979 54.7097 85.9222 53.7431 87.0242C52.7764 88.1069 51.2297 88.8802 49.1031 89.3442C47.2471 89.7502 45.8841 90.2915 45.0141 90.9682C44.1441 91.6255 43.7091 92.5922 43.7091 93.8682V94.7382H55.0191ZM46.1161 129.908V126.544L52.7281 122.31V121.962H41.2441V119.7H54.8161V123.412L48.2041 127.646V127.994H49.3641C50.1374 127.994 50.8817 128.12 51.5971 128.371C52.3124 128.622 52.9407 128.99 53.4821 129.473C54.0427 129.956 54.4874 130.556 54.8161 131.271C55.1641 131.967 55.3381 132.779 55.3381 133.707V134.229C55.3381 135.099 55.1641 135.911 54.8161 136.665C54.4681 137.419 53.9847 138.076 53.3661 138.637C52.7474 139.178 52.0127 139.613 51.1621 139.942C50.3307 140.251 49.4221 140.406 48.4361 140.406C47.2954 140.406 46.2707 140.232 45.3621 139.884C44.4534 139.536 43.6801 139.062 43.0421 138.463C42.4041 137.844 41.9111 137.129 41.5631 136.317C41.2344 135.486 41.0701 134.606 41.0701 133.678V132.112H43.5061V133.504C43.5061 134.239 43.6221 134.896 43.8541 135.476C44.1054 136.037 44.4437 136.52 44.8691 136.926C45.3137 137.313 45.8357 137.612 46.4351 137.825C47.0344 138.038 47.6821 138.144 48.3781 138.144C49.0161 138.144 49.6057 138.038 50.1471 137.825C50.7077 137.612 51.1911 137.322 51.5971 136.955C52.0031 136.568 52.3221 136.124 52.5541 135.621C52.7861 135.099 52.9021 134.548 52.9021 133.968V133.794C52.9021 132.576 52.5154 131.629 51.7421 130.952C50.9687 130.256 50.0021 129.908 48.8421 129.908H46.1161ZM47.7691 162.7H52.4961V176.91H55.6281V179.172H52.4961V183H50.0601V179.172H40.6641V175.808L47.7691 162.7ZM42.7521 176.562V176.91H50.0601V163.744H49.7121L42.7521 176.562ZM41.5051 216.43V205.7H54.2071V207.962H43.8831V215.212H44.2311C44.4244 214.825 44.6757 214.458 44.9851 214.11C45.2944 213.743 45.6521 213.424 46.0581 213.153C46.4834 212.882 46.9571 212.67 47.4791 212.515C48.0011 212.341 48.5811 212.254 49.2191 212.254C50.1471 212.254 50.9977 212.409 51.7711 212.718C52.5637 213.027 53.2404 213.462 53.8011 214.023C54.3617 214.584 54.7967 215.26 55.1061 216.053C55.4347 216.846 55.5991 217.725 55.5991 218.692V219.214C55.5991 220.181 55.4444 221.099 55.1351 221.969C54.8257 222.82 54.3714 223.583 53.7721 224.26C53.1727 224.917 52.4284 225.439 51.5391 225.826C50.6497 226.213 49.6251 226.406 48.4651 226.406C47.2857 226.406 46.2417 226.232 45.3331 225.884C44.4244 225.536 43.6607 225.053 43.0421 224.434C42.4234 223.815 41.9497 223.09 41.6211 222.259C41.3117 221.408 41.1571 220.49 41.1571 219.504V218.692H43.5931V219.33C43.5931 220.935 44.0377 222.143 44.9271 222.955C45.8357 223.748 47.0151 224.144 48.4651 224.144C49.2384 224.144 49.9151 224.009 50.4951 223.738C51.0944 223.448 51.5874 223.071 51.9741 222.607C52.3801 222.124 52.6797 221.573 52.8731 220.954C53.0664 220.316 53.1631 219.659 53.1631 218.982V218.808C53.1631 218.209 53.0567 217.648 52.8441 217.126C52.6507 216.604 52.3704 216.15 52.0031 215.763C51.6551 215.376 51.2201 215.077 50.6981 214.864C50.1954 214.632 49.6444 214.516 49.0451 214.516C48.6391 214.516 48.2621 214.574 47.9141 214.69C47.5854 214.806 47.2954 214.961 47.0441 215.154C46.7927 215.328 46.5801 215.531 46.4061 215.763C46.2514 215.995 46.1451 216.217 46.0871 216.43H41.5051ZM52.3801 254.616C52.3801 253.359 51.9934 252.354 51.2201 251.6C50.4467 250.827 49.3737 250.44 48.0011 250.44C47.3437 250.44 46.7347 250.556 46.1741 250.788C45.6327 251.02 45.1591 251.358 44.7531 251.803C44.3664 252.228 44.0571 252.741 43.8251 253.34C43.6124 253.939 43.5061 254.597 43.5061 255.312V258.328H43.8541C44.3181 257.477 44.9754 256.81 45.8261 256.327C46.6961 255.844 47.6627 255.602 48.7261 255.602C49.6541 255.602 50.5144 255.757 51.3071 256.066C52.0997 256.356 52.7764 256.791 53.3371 257.371C53.9171 257.951 54.3617 258.657 54.6711 259.488C54.9997 260.3 55.1641 261.228 55.1641 262.272V262.62C55.1641 263.625 54.9804 264.544 54.6131 265.375C54.2651 266.206 53.7721 266.922 53.1341 267.521C52.5154 268.12 51.7711 268.584 50.9011 268.913C50.0504 269.242 49.1224 269.406 48.1171 269.406C47.1117 269.406 46.1741 269.242 45.3041 268.913C44.4534 268.584 43.7091 268.13 43.0711 267.55C42.4524 266.951 41.9594 266.245 41.5921 265.433C41.2441 264.602 41.0701 263.693 41.0701 262.707V255.312C41.0701 254.249 41.2537 253.282 41.6211 252.412C41.9884 251.542 42.4911 250.807 43.1291 250.208C43.7671 249.589 44.5017 249.116 45.3331 248.787C46.1837 248.458 47.0924 248.294 48.0591 248.294C49.0257 248.294 49.9247 248.439 50.7561 248.729C51.5874 249.019 52.3027 249.444 52.9021 250.005C53.5014 250.546 53.9654 251.213 54.2941 252.006C54.6421 252.779 54.8161 253.649 54.8161 254.616H52.3801ZM48.1171 267.26C48.8131 267.26 49.4414 267.154 50.0021 266.941C50.5821 266.709 51.0751 266.39 51.4811 265.984C51.8871 265.578 52.1964 265.095 52.4091 264.534C52.6217 263.973 52.7281 263.355 52.7281 262.678V262.33C52.7281 261.653 52.6121 261.035 52.3801 260.474C52.1481 259.913 51.8291 259.43 51.4231 259.024C51.0171 258.618 50.5241 258.309 49.9441 258.096C49.3834 257.864 48.7744 257.748 48.1171 257.748C47.4597 257.748 46.8507 257.864 46.2901 258.096C45.7294 258.328 45.2364 258.647 44.8111 259.053C44.4051 259.459 44.0861 259.933 43.8541 260.474C43.6221 261.015 43.5061 261.595 43.5061 262.214V262.765C43.5061 263.403 43.6124 264.002 43.8251 264.563C44.0377 265.104 44.3471 265.578 44.7531 265.984C45.1591 266.39 45.6424 266.709 46.2031 266.941C46.7831 267.154 47.4211 267.26 48.1171 267.26Z" fill="white"/>
<path d="M128.979 48.8962C128.824 49.6889 128.554 50.4235 128.167 51.1002C127.8 51.7769 127.326 52.3665 126.746 52.8692C126.166 53.3525 125.489 53.7295 124.716 54.0002C123.943 54.2709 123.082 54.4062 122.135 54.4062C121.13 54.4062 120.173 54.2419 119.264 53.9132C118.375 53.5845 117.592 53.1109 116.915 52.4922C116.238 51.8542 115.697 51.0809 115.291 50.1722C114.904 49.2635 114.711 48.2195 114.711 47.0402V46.6922C114.711 45.5322 114.904 44.4882 115.291 43.5602C115.697 42.6322 116.238 41.8492 116.915 41.2112C117.592 40.5732 118.375 40.0802 119.264 39.7322C120.173 39.3842 121.13 39.2102 122.135 39.2102C123.044 39.2102 123.885 39.3455 124.658 39.6162C125.431 39.8869 126.108 40.2735 126.688 40.7762C127.287 41.2595 127.771 41.8395 128.138 42.5162C128.525 43.1929 128.786 43.9275 128.921 44.7202L126.659 45.2422C126.601 44.7395 126.456 44.2562 126.224 43.7922C126.011 43.3089 125.712 42.8932 125.325 42.5452C124.958 42.1779 124.503 41.8879 123.962 41.6752C123.421 41.4625 122.792 41.3562 122.077 41.3562C121.381 41.3562 120.724 41.4915 120.105 41.7622C119.506 42.0135 118.974 42.3809 118.51 42.8642C118.046 43.3282 117.679 43.8889 117.408 44.5462C117.157 45.2035 117.031 45.9189 117.031 46.6922V47.0402C117.031 47.8522 117.157 48.5869 117.408 49.2442C117.679 49.8822 118.046 50.4235 118.51 50.8682C118.974 51.3129 119.515 51.6609 120.134 51.9122C120.753 52.1442 121.42 52.2602 122.135 52.2602C122.85 52.2602 123.469 52.1539 123.991 51.9412C124.532 51.7092 124.987 51.4192 125.354 51.0712C125.741 50.7039 126.04 50.2882 126.253 49.8242C126.485 49.3602 126.64 48.8769 126.717 48.3742L128.979 48.8962ZM133.28 51.9122H138.5V35.7882H133.454V33.7002H140.762V51.9122H145.982V54.0002H133.28V51.9122ZM161.477 51.5642H161.129C160.665 52.5309 160.017 53.2462 159.186 53.7102C158.374 54.1742 157.513 54.4062 156.605 54.4062C155.657 54.4062 154.778 54.2515 153.966 53.9422C153.154 53.6135 152.438 53.1399 151.82 52.5212C151.22 51.8832 150.747 51.1099 150.399 50.2012C150.051 49.2925 149.877 48.2389 149.877 47.0402V46.5762C149.877 45.3969 150.051 44.3529 150.399 43.4442C150.747 42.5355 151.22 41.7719 151.82 41.1532C152.438 40.5152 153.154 40.0319 153.966 39.7032C154.778 39.3745 155.638 39.2102 156.547 39.2102C157.533 39.2102 158.422 39.4325 159.215 39.8772C160.027 40.3025 160.665 40.9695 161.129 41.8782H161.477V39.6162H163.739V51.0422C163.739 51.6222 164 51.9122 164.522 51.9122H165.247V54.0002H163.71C163.052 54.0002 162.511 53.7875 162.086 53.3622C161.68 52.9369 161.477 52.3955 161.477 51.7382V51.5642ZM156.837 52.2602C157.513 52.2602 158.132 52.1345 158.693 51.8832C159.273 51.6319 159.766 51.2742 160.172 50.8102C160.578 50.3462 160.897 49.7952 161.129 49.1572C161.361 48.4999 161.477 47.7749 161.477 46.9822V46.6342C161.477 45.8609 161.361 45.1552 161.129 44.5172C160.897 43.8599 160.568 43.2992 160.143 42.8352C159.737 42.3712 159.244 42.0135 158.664 41.7622C158.103 41.4915 157.494 41.3562 156.837 41.3562C156.16 41.3562 155.541 41.4819 154.981 41.7332C154.42 41.9845 153.927 42.3422 153.502 42.8062C153.096 43.2509 152.777 43.8019 152.545 44.4592C152.313 45.0972 152.197 45.8029 152.197 46.5762V47.0402C152.197 48.6835 152.622 49.9692 153.473 50.8972C154.343 51.8059 155.464 52.2602 156.837 52.2602ZM171.781 43.3282C171.781 44.0242 172.071 44.5559 172.651 44.9232C173.25 45.2905 174.333 45.5322 175.899 45.6482C177.581 45.7835 178.857 46.1895 179.727 46.8662C180.616 47.5235 181.061 48.4902 181.061 49.7662V49.9402C181.061 50.6362 180.916 51.2645 180.626 51.8252C180.355 52.3665 179.968 52.8305 179.466 53.2172C178.982 53.6039 178.383 53.8939 177.668 54.0872C176.972 54.2999 176.208 54.4062 175.377 54.4062C174.255 54.4062 173.289 54.2612 172.477 53.9712C171.684 53.6619 171.017 53.2655 170.476 52.7822C169.954 52.2795 169.557 51.7189 169.287 51.1002C169.016 50.4622 168.861 49.8242 168.823 49.1862L170.969 48.6642C171.065 49.7662 171.491 50.6555 172.245 51.3322C172.999 51.9895 174.004 52.3182 175.261 52.3182C176.324 52.3182 177.175 52.1152 177.813 51.7092C178.47 51.2839 178.799 50.6942 178.799 49.9402C178.799 49.1282 178.48 48.5482 177.842 48.2002C177.204 47.8522 176.169 47.6299 174.739 47.5332C173.076 47.4172 171.8 47.0305 170.911 46.3732C170.021 45.7159 169.577 44.7589 169.577 43.5022V43.3282C169.577 42.6515 169.722 42.0619 170.012 41.5592C170.302 41.0372 170.688 40.6022 171.172 40.2542C171.674 39.9062 172.235 39.6452 172.854 39.4712C173.472 39.2972 174.12 39.2102 174.797 39.2102C175.744 39.2102 176.575 39.3455 177.291 39.6162C178.006 39.8675 178.605 40.2059 179.089 40.6312C179.572 41.0372 179.939 41.5109 180.191 42.0522C180.461 42.5935 180.635 43.1349 180.713 43.6762L178.567 44.1982C178.47 43.2702 178.093 42.5452 177.436 42.0232C176.798 41.5012 175.957 41.2402 174.913 41.2402C174.507 41.2402 174.11 41.2885 173.724 41.3852C173.356 41.4625 173.028 41.5882 172.738 41.7622C172.448 41.9362 172.216 42.1585 172.042 42.4292C171.868 42.6805 171.781 42.9802 171.781 43.3282ZM189.537 43.3282C189.537 44.0242 189.827 44.5559 190.407 44.9232C191.007 45.2905 192.089 45.5322 193.655 45.6482C195.337 45.7835 196.613 46.1895 197.483 46.8662C198.373 47.5235 198.817 48.4902 198.817 49.7662V49.9402C198.817 50.6362 198.672 51.2645 198.382 51.8252C198.112 52.3665 197.725 52.8305 197.222 53.2172C196.739 53.6039 196.14 53.8939 195.424 54.0872C194.728 54.2999 193.965 54.4062 193.133 54.4062C192.012 54.4062 191.045 54.2612 190.233 53.9712C189.441 53.6619 188.774 53.2655 188.232 52.7822C187.71 52.2795 187.314 51.7189 187.043 51.1002C186.773 50.4622 186.618 49.8242 186.579 49.1862L188.725 48.6642C188.822 49.7662 189.247 50.6555 190.001 51.3322C190.755 51.9895 191.761 52.3182 193.017 52.3182C194.081 52.3182 194.931 52.1152 195.569 51.7092C196.227 51.2839 196.555 50.6942 196.555 49.9402C196.555 49.1282 196.236 48.5482 195.598 48.2002C194.96 47.8522 193.926 47.6299 192.495 47.5332C190.833 47.4172 189.557 47.0305 188.667 46.3732C187.778 45.7159 187.333 44.7589 187.333 43.5022V43.3282C187.333 42.6515 187.478 42.0619 187.768 41.5592C188.058 41.0372 188.445 40.6022 188.928 40.2542C189.431 39.9062 189.992 39.6452 190.61 39.4712C191.229 39.2972 191.877 39.2102 192.553 39.2102C193.501 39.2102 194.332 39.3455 195.047 39.6162C195.763 39.8675 196.362 40.2059 196.845 40.6312C197.329 41.0372 197.696 41.5109 197.947 42.0522C198.218 42.5935 198.392 43.1349 198.469 43.6762L196.323 44.1982C196.227 43.2702 195.85 42.5452 195.192 42.0232C194.554 41.5012 193.713 41.2402 192.669 41.2402C192.263 41.2402 191.867 41.2885 191.48 41.3852C191.113 41.4625 190.784 41.5882 190.494 41.7622C190.204 41.9362 189.972 42.1585 189.798 42.4292C189.624 42.6805 189.537 42.9802 189.537 43.3282ZM188.29 102.8H186.028V82.6162H188.29V84.8782H188.638C189.141 84.0082 189.837 83.3509 190.726 82.9062C191.616 82.4422 192.582 82.2102 193.626 82.2102C194.516 82.2102 195.357 82.3745 196.149 82.7032C196.942 83.0319 197.638 83.5055 198.237 84.1242C198.856 84.7429 199.339 85.5065 199.687 86.4152C200.055 87.3239 200.238 88.3582 200.238 89.5182V90.0982C200.238 91.2775 200.064 92.3215 199.716 93.2302C199.368 94.1389 198.885 94.9025 198.266 95.5212C197.667 96.1399 196.961 96.6135 196.149 96.9422C195.337 97.2515 194.477 97.4062 193.568 97.4062C193.104 97.4062 192.631 97.3482 192.147 97.2322C191.664 97.1355 191.2 96.9809 190.755 96.7682C190.33 96.5362 189.934 96.2655 189.566 95.9562C189.199 95.6275 188.89 95.2409 188.638 94.7962H188.29V102.8ZM193.104 95.2602C193.8 95.2602 194.438 95.1442 195.018 94.9122C195.598 94.6609 196.101 94.3129 196.526 93.8682C196.971 93.4235 197.309 92.8822 197.541 92.2442C197.793 91.6062 197.918 90.8909 197.918 90.0982V89.5182C197.918 88.7449 197.793 88.0489 197.541 87.4302C197.309 86.7922 196.971 86.2509 196.526 85.8062C196.101 85.3422 195.589 84.9845 194.989 84.7332C194.409 84.4819 193.781 84.3562 193.104 84.3562C192.428 84.3562 191.799 84.4915 191.219 84.7622C190.639 85.0135 190.127 85.3712 189.682 85.8352C189.257 86.2992 188.919 86.8599 188.667 87.5172C188.416 88.1552 188.29 88.8609 188.29 89.6342V89.9822C188.29 90.7749 188.416 91.4999 188.667 92.1572C188.919 92.7952 189.257 93.3462 189.682 93.8102C190.127 94.2742 190.639 94.6319 191.219 94.8832C191.799 95.1345 192.428 95.2602 193.104 95.2602ZM214.573 82.6162H216.835V97.0002H214.573V94.3902H214.225C213.761 95.3182 213.152 96.0529 212.398 96.5942C211.644 97.1355 210.687 97.4062 209.527 97.4062C208.735 97.4062 208 97.2709 207.323 97.0002C206.666 96.7489 206.096 96.3622 205.612 95.8402C205.148 95.3182 204.781 94.6705 204.51 93.8972C204.259 93.1239 204.133 92.2249 204.133 91.2002V82.6162H206.395V90.9102C206.395 92.4182 206.705 93.5202 207.323 94.2162C207.942 94.9122 208.889 95.2602 210.165 95.2602C211.538 95.2602 212.611 94.7962 213.384 93.8682C214.177 92.9209 214.573 91.6642 214.573 90.0982V82.6162ZM223.804 97.0002H221.542V76.7002H223.804V84.8782H224.152C224.655 84.0082 225.351 83.3509 226.24 82.9062C227.129 82.4422 228.096 82.2102 229.14 82.2102C230.029 82.2102 230.87 82.3745 231.663 82.7032C232.456 83.0319 233.152 83.5055 233.751 84.1242C234.37 84.7429 234.853 85.5065 235.201 86.4152C235.568 87.3239 235.752 88.3582 235.752 89.5182V90.0982C235.752 91.2775 235.578 92.3215 235.23 93.2302C234.882 94.1389 234.399 94.9025 233.78 95.5212C233.181 96.1399 232.475 96.6135 231.663 96.9422C230.851 97.2515 229.991 97.4062 229.082 97.4062C228.618 97.4062 228.144 97.3482 227.661 97.2322C227.178 97.1355 226.714 96.9809 226.269 96.7682C225.844 96.5362 225.447 96.2655 225.08 95.9562C224.713 95.6275 224.403 95.2409 224.152 94.7962H223.804V97.0002ZM228.618 95.2602C229.314 95.2602 229.952 95.1442 230.532 94.9122C231.112 94.6609 231.615 94.3129 232.04 93.8682C232.485 93.4235 232.823 92.8822 233.055 92.2442C233.306 91.6062 233.432 90.8909 233.432 90.0982V89.5182C233.432 88.7449 233.306 88.0489 233.055 87.4302C232.823 86.7922 232.485 86.2509 232.04 85.8062C231.615 85.3422 231.102 84.9845 230.503 84.7332C229.923 84.4819 229.295 84.3562 228.618 84.3562C227.941 84.3562 227.313 84.4915 226.733 84.7622C226.153 85.0135 225.641 85.3712 225.196 85.8352C224.771 86.2992 224.432 86.8599 224.181 87.5172C223.93 88.1552 223.804 88.8609 223.804 89.6342V89.9822C223.804 90.7749 223.93 91.4999 224.181 92.1572C224.432 92.7952 224.771 93.3462 225.196 93.8102C225.641 94.2742 226.153 94.6319 226.733 94.8832C227.313 95.1345 227.941 95.2602 228.618 95.2602ZM239.821 94.9122H245.041V78.7882H239.995V76.7002H247.303V94.9122H252.523V97.0002H239.821V94.9122ZM262.044 78.3242C262.044 77.7635 262.237 77.2899 262.624 76.9032C263.03 76.4972 263.513 76.2942 264.074 76.2942C264.634 76.2942 265.108 76.4972 265.495 76.9032C265.901 77.2899 266.104 77.7635 266.104 78.3242C266.104 78.8849 265.901 79.3682 265.495 79.7742C265.108 80.1609 264.634 80.3542 264.074 80.3542C263.513 80.3542 263.03 80.1609 262.624 79.7742C262.237 79.3682 262.044 78.8849 262.044 78.3242ZM257.926 94.9122H262.972V84.7042H258.448V82.6162H265.234V94.9122H269.932V97.0002H257.926V94.9122ZM288.791 91.8962C288.636 92.6889 288.365 93.4235 287.979 94.1002C287.611 94.7769 287.138 95.3665 286.558 95.8692C285.978 96.3525 285.301 96.7295 284.528 97.0002C283.754 97.2709 282.894 97.4062 281.947 97.4062C280.941 97.4062 279.984 97.2419 279.076 96.9132C278.186 96.5845 277.403 96.1109 276.727 95.4922C276.05 94.8542 275.509 94.0809 275.103 93.1722C274.716 92.2635 274.523 91.2195 274.523 90.0402V89.6922C274.523 88.5322 274.716 87.4882 275.103 86.5602C275.509 85.6322 276.05 84.8492 276.727 84.2112C277.403 83.5732 278.186 83.0802 279.076 82.7322C279.984 82.3842 280.941 82.2102 281.947 82.2102C282.855 82.2102 283.696 82.3455 284.47 82.6162C285.243 82.8869 285.92 83.2735 286.5 83.7762C287.099 84.2595 287.582 84.8395 287.95 85.5162C288.336 86.1929 288.597 86.9275 288.733 87.7202L286.471 88.2422C286.413 87.7395 286.268 87.2562 286.036 86.7922C285.823 86.3089 285.523 85.8932 285.137 85.5452C284.769 85.1779 284.315 84.8879 283.774 84.6752C283.232 84.4625 282.604 84.3562 281.889 84.3562C281.193 84.3562 280.535 84.4915 279.917 84.7622C279.317 85.0135 278.786 85.3809 278.322 85.8642C277.858 86.3282 277.49 86.8889 277.22 87.5462C276.968 88.2035 276.843 88.9189 276.843 89.6922V90.0402C276.843 90.8522 276.968 91.5869 277.22 92.2442C277.49 92.8822 277.858 93.4235 278.322 93.8682C278.786 94.3129 279.327 94.6609 279.946 94.9122C280.564 95.1442 281.231 95.2602 281.947 95.2602C282.662 95.2602 283.281 95.1539 283.803 94.9412C284.344 94.7092 284.798 94.4192 285.166 94.0712C285.552 93.7039 285.852 93.2882 286.065 92.8242C286.297 92.3602 286.451 91.8769 286.529 91.3742L288.791 91.8962ZM313.835 86.3282C313.835 87.0242 314.125 87.5559 314.705 87.9232C315.305 88.2905 316.387 88.5322 317.953 88.6482C319.635 88.7835 320.911 89.1895 321.781 89.8662C322.671 90.5235 323.115 91.4902 323.115 92.7662V92.9402C323.115 93.6362 322.97 94.2645 322.68 94.8252C322.41 95.3665 322.023 95.8305 321.52 96.2172C321.037 96.6039 320.438 96.8939 319.722 97.0872C319.026 97.2999 318.263 97.4062 317.431 97.4062C316.31 97.4062 315.343 97.2612 314.531 96.9712C313.739 96.6619 313.072 96.2655 312.53 95.7822C312.008 95.2795 311.612 94.7189 311.341 94.1002C311.071 93.4622 310.916 92.8242 310.877 92.1862L313.023 91.6642C313.12 92.7662 313.545 93.6555 314.299 94.3322C315.053 94.9895 316.059 95.3182 317.315 95.3182C318.379 95.3182 319.229 95.1152 319.867 94.7092C320.525 94.2839 320.853 93.6942 320.853 92.9402C320.853 92.1282 320.534 91.5482 319.896 91.2002C319.258 90.8522 318.224 90.6299 316.793 90.5332C315.131 90.4172 313.855 90.0305 312.965 89.3732C312.076 88.7159 311.631 87.7589 311.631 86.5022V86.3282C311.631 85.6515 311.776 85.0619 312.066 84.5592C312.356 84.0372 312.743 83.6022 313.226 83.2542C313.729 82.9062 314.29 82.6452 314.908 82.4712C315.527 82.2972 316.175 82.2102 316.851 82.2102C317.799 82.2102 318.63 82.3455 319.345 82.6162C320.061 82.8675 320.66 83.2059 321.143 83.6312C321.627 84.0372 321.994 84.5109 322.245 85.0522C322.516 85.5935 322.69 86.1349 322.767 86.6762L320.621 87.1982C320.525 86.2702 320.148 85.5452 319.49 85.0232C318.852 84.5012 318.011 84.2402 316.967 84.2402C316.561 84.2402 316.165 84.2885 315.778 84.3852C315.411 84.4625 315.082 84.5882 314.792 84.7622C314.502 84.9362 314.27 85.1585 314.096 85.4292C313.922 85.6805 313.835 85.9802 313.835 86.3282ZM328.112 82.6162H332.636V76.7002H334.898V82.6162H340.466V84.7042H334.898V94.0422C334.898 94.6222 335.159 94.9122 335.681 94.9122H339.77V97.0002H334.869C334.212 97.0002 333.67 96.7875 333.245 96.3622C332.839 95.9369 332.636 95.3955 332.636 94.7382V84.7042H328.112V82.6162ZM356.802 94.5642H356.454C355.99 95.5309 355.342 96.2462 354.511 96.7102C353.699 97.1742 352.839 97.4062 351.93 97.4062C350.983 97.4062 350.103 97.2515 349.291 96.9422C348.479 96.6135 347.764 96.1399 347.145 95.5212C346.546 94.8832 346.072 94.1099 345.724 93.2012C345.376 92.2925 345.202 91.2389 345.202 90.0402V89.5762C345.202 88.3969 345.376 87.3529 345.724 86.4442C346.072 85.5355 346.546 84.7719 347.145 84.1532C347.764 83.5152 348.479 83.0319 349.291 82.7032C350.103 82.3745 350.963 82.2102 351.872 82.2102C352.858 82.2102 353.747 82.4325 354.54 82.8772C355.352 83.3025 355.99 83.9695 356.454 84.8782H356.802V82.6162H359.064V94.0422C359.064 94.6222 359.325 94.9122 359.847 94.9122H360.572V97.0002H359.035C358.378 97.0002 357.836 96.7875 357.411 96.3622C357.005 95.9369 356.802 95.3955 356.802 94.7382V94.5642ZM352.162 95.2602C352.839 95.2602 353.457 95.1345 354.018 94.8832C354.598 94.6319 355.091 94.2742 355.497 93.8102C355.903 93.3462 356.222 92.7952 356.454 92.1572C356.686 91.4999 356.802 90.7749 356.802 89.9822V89.6342C356.802 88.8609 356.686 88.1552 356.454 87.5172C356.222 86.8599 355.893 86.2992 355.468 85.8352C355.062 85.3712 354.569 85.0135 353.989 84.7622C353.428 84.4915 352.819 84.3562 352.162 84.3562C351.485 84.3562 350.867 84.4819 350.306 84.7332C349.745 84.9845 349.252 85.3422 348.827 85.8062C348.421 86.2509 348.102 86.8019 347.87 87.4592C347.638 88.0972 347.522 88.8029 347.522 89.5762V90.0402C347.522 91.6835 347.947 92.9692 348.798 93.8972C349.668 94.8059 350.789 95.2602 352.162 95.2602ZM363.626 82.6162H368.15V76.7002H370.412V82.6162H375.98V84.7042H370.412V94.0422C370.412 94.6222 370.673 94.9122 371.195 94.9122H375.284V97.0002H370.383C369.725 97.0002 369.184 96.7875 368.759 96.3622C368.353 95.9369 368.15 95.3955 368.15 94.7382V84.7042H363.626V82.6162ZM386.342 78.3242C386.342 77.7635 386.535 77.2899 386.922 76.9032C387.328 76.4972 387.811 76.2942 388.372 76.2942C388.932 76.2942 389.406 76.4972 389.793 76.9032C390.199 77.2899 390.402 77.7635 390.402 78.3242C390.402 78.8849 390.199 79.3682 389.793 79.7742C389.406 80.1609 388.932 80.3542 388.372 80.3542C387.811 80.3542 387.328 80.1609 386.922 79.7742C386.535 79.3682 386.342 78.8849 386.342 78.3242ZM382.224 94.9122H387.27V84.7042H382.746V82.6162H389.532V94.9122H394.23V97.0002H382.224V94.9122ZM413.088 91.8962C412.934 92.6889 412.663 93.4235 412.276 94.1002C411.909 94.7769 411.435 95.3665 410.855 95.8692C410.275 96.3525 409.599 96.7295 408.825 97.0002C408.052 97.2709 407.192 97.4062 406.244 97.4062C405.239 97.4062 404.282 97.2419 403.373 96.9132C402.484 96.5845 401.701 96.1109 401.024 95.4922C400.348 94.8542 399.806 94.0809 399.4 93.1722C399.014 92.2635 398.82 91.2195 398.82 90.0402V89.6922C398.82 88.5322 399.014 87.4882 399.4 86.5602C399.806 85.6322 400.348 84.8492 401.024 84.2112C401.701 83.5732 402.484 83.0802 403.373 82.7322C404.282 82.3842 405.239 82.2102 406.244 82.2102C407.153 82.2102 407.994 82.3455 408.767 82.6162C409.541 82.8869 410.217 83.2735 410.797 83.7762C411.397 84.2595 411.88 84.8395 412.247 85.5162C412.634 86.1929 412.895 86.9275 413.03 87.7202L410.768 88.2422C410.71 87.7395 410.565 87.2562 410.333 86.7922C410.121 86.3089 409.821 85.8932 409.434 85.5452C409.067 85.1779 408.613 84.8879 408.071 84.6752C407.53 84.4625 406.902 84.3562 406.186 84.3562C405.49 84.3562 404.833 84.4915 404.214 84.7622C403.615 85.0135 403.083 85.3809 402.619 85.8642C402.155 86.3282 401.788 86.8889 401.517 87.5462C401.266 88.2035 401.14 88.9189 401.14 89.6922V90.0402C401.14 90.8522 401.266 91.5869 401.517 92.2442C401.788 92.8822 402.155 93.4235 402.619 93.8682C403.083 94.3129 403.625 94.6609 404.243 94.9122C404.862 95.1442 405.529 95.2602 406.244 95.2602C406.96 95.2602 407.578 95.1539 408.1 94.9412C408.642 94.7092 409.096 94.4192 409.463 94.0712C409.85 93.7039 410.15 93.2882 410.362 92.8242C410.594 92.3602 410.749 91.8769 410.826 91.3742L413.088 91.8962ZM443.701 97.0002H439.235L434.218 82.6162H436.886L441.294 95.9562H441.642L446.05 82.6162H448.718L443.701 97.0002ZM466.475 89.9822C466.475 91.1809 466.272 92.2442 465.866 93.1722C465.479 94.0809 464.957 94.8542 464.3 95.4922C463.643 96.1109 462.869 96.5845 461.98 96.9132C461.11 97.2419 460.201 97.4062 459.254 97.4062C458.287 97.4062 457.369 97.2419 456.499 96.9132C455.629 96.5845 454.865 96.1109 454.208 95.4922C453.551 94.8542 453.019 94.0809 452.613 93.1722C452.226 92.2442 452.033 91.1809 452.033 89.9822V89.6342C452.033 88.4549 452.226 87.4109 452.613 86.5022C453.019 85.5742 453.551 84.7912 454.208 84.1532C454.885 83.5152 455.658 83.0319 456.528 82.7032C457.398 82.3745 458.307 82.2102 459.254 82.2102C460.201 82.2102 461.11 82.3745 461.98 82.7032C462.85 83.0319 463.614 83.5152 464.271 84.1532C464.948 84.7912 465.479 85.5742 465.866 86.5022C466.272 87.4109 466.475 88.4549 466.475 89.6342V89.9822ZM459.254 95.2602C459.95 95.2602 460.588 95.1442 461.168 94.9122C461.767 94.6609 462.289 94.3032 462.734 93.8392C463.179 93.3752 463.527 92.8242 463.778 92.1862C464.029 91.5289 464.155 90.7942 464.155 89.9822V89.6342C464.155 88.8609 464.029 88.1552 463.778 87.5172C463.527 86.8599 463.179 86.2992 462.734 85.8352C462.289 85.3712 461.767 85.0135 461.168 84.7622C460.569 84.4915 459.931 84.3562 459.254 84.3562C458.577 84.3562 457.939 84.4915 457.34 84.7622C456.741 85.0135 456.219 85.3712 455.774 85.8352C455.329 86.2992 454.981 86.8599 454.73 87.5172C454.479 88.1552 454.353 88.8609 454.353 89.6342V89.9822C454.353 90.7942 454.479 91.5289 454.73 92.1862C454.981 92.8242 455.329 93.3752 455.774 93.8392C456.219 94.3032 456.731 94.6609 457.311 94.9122C457.91 95.1442 458.558 95.2602 459.254 95.2602ZM475.126 78.3242C475.126 77.7635 475.319 77.2899 475.706 76.9032C476.112 76.4972 476.595 76.2942 477.156 76.2942C477.716 76.2942 478.19 76.4972 478.577 76.9032C478.983 77.2899 479.186 77.7635 479.186 78.3242C479.186 78.8849 478.983 79.3682 478.577 79.7742C478.19 80.1609 477.716 80.3542 477.156 80.3542C476.595 80.3542 476.112 80.1609 475.706 79.7742C475.319 79.3682 475.126 78.8849 475.126 78.3242ZM471.008 94.9122H476.054V84.7042H471.53V82.6162H478.316V94.9122H483.014V97.0002H471.008V94.9122ZM499.553 94.7962H499.205C498.973 95.2409 498.673 95.6275 498.306 95.9562C497.958 96.2849 497.571 96.5555 497.146 96.7682C496.74 96.9809 496.305 97.1355 495.841 97.2322C495.377 97.3482 494.932 97.4062 494.507 97.4062C493.54 97.4062 492.641 97.2419 491.81 96.9132C490.978 96.5845 490.244 96.1109 489.606 95.4922C488.987 94.8735 488.494 94.1099 488.127 93.2012C487.779 92.2732 487.605 91.2195 487.605 90.0402V89.5762C487.605 88.4162 487.788 87.3819 488.156 86.4732C488.523 85.5452 489.016 84.7719 489.635 84.1532C490.253 83.5152 490.978 83.0319 491.81 82.7032C492.641 82.3745 493.521 82.2102 494.449 82.2102C495.435 82.2102 496.353 82.4325 497.204 82.8772C498.074 83.3025 498.741 83.9695 499.205 84.8782H499.553V76.7002H501.815V97.0002H499.553V94.7962ZM494.739 95.2602C495.415 95.2602 496.044 95.1345 496.624 94.8832C497.204 94.6319 497.706 94.2742 498.132 93.8102C498.576 93.3462 498.924 92.7952 499.176 92.1572C499.427 91.4999 499.553 90.7749 499.553 89.9822V89.6342C499.553 88.8609 499.427 88.1552 499.176 87.5172C498.924 86.8599 498.576 86.2992 498.132 85.8352C497.706 85.3712 497.194 85.0135 496.595 84.7622C496.015 84.4915 495.396 84.3562 494.739 84.3562C494.062 84.3562 493.424 84.4819 492.825 84.7332C492.245 84.9845 491.732 85.3422 491.288 85.8062C490.862 86.2702 490.524 86.8212 490.273 87.4592C490.041 88.0972 489.925 88.8029 489.925 89.5762V90.0402C489.925 90.8522 490.041 91.5772 490.273 92.2152C490.524 92.8532 490.862 93.4042 491.288 93.8682C491.732 94.3129 492.245 94.6609 492.825 94.9122C493.405 95.1442 494.043 95.2602 494.739 95.2602Z" fill="#5C87FF"/>
<path d="M221.281 33.6998H235.549V35.9618H229.633V53.9998H227.197V35.9618H221.281V33.6998ZM241.474 47.5038C241.532 48.9345 241.977 50.0848 242.808 50.9548C243.639 51.8248 244.799 52.2598 246.288 52.2598C246.965 52.2598 247.554 52.1825 248.057 52.0278C248.56 51.8731 248.985 51.6605 249.333 51.3898C249.7 51.1191 249.99 50.8098 250.203 50.4618C250.435 50.0945 250.619 49.7078 250.754 49.3018L252.9 49.8818C252.494 51.2158 251.74 52.3081 250.638 53.1588C249.555 53.9901 248.086 54.4058 246.23 54.4058C245.205 54.4058 244.258 54.2318 243.388 53.8838C242.537 53.5165 241.803 53.0041 241.184 52.3468C240.565 51.6895 240.082 50.9065 239.734 49.9978C239.386 49.0891 239.212 48.0838 239.212 46.9818V46.2858C239.212 45.2805 239.386 44.3428 239.734 43.4728C240.101 42.6028 240.604 41.8585 241.242 41.2398C241.88 40.6018 242.624 40.1088 243.475 39.7608C244.345 39.3935 245.283 39.2098 246.288 39.2098C247.467 39.2098 248.482 39.4321 249.333 39.8768C250.203 40.3021 250.909 40.8338 251.45 41.4718C252.011 42.1098 252.417 42.8058 252.668 43.5598C252.939 44.3138 253.074 45.0098 253.074 45.6478V47.5038H241.474ZM246.288 41.3558C245.65 41.3558 245.051 41.4621 244.49 41.6748C243.949 41.8681 243.465 42.1485 243.04 42.5158C242.634 42.8831 242.296 43.3181 242.025 43.8208C241.774 44.3041 241.609 44.8358 241.532 45.4158H250.812C250.773 44.7971 250.619 44.2365 250.348 43.7338C250.097 43.2311 249.758 42.8058 249.333 42.4578C248.927 42.1098 248.453 41.8391 247.912 41.6458C247.39 41.4525 246.849 41.3558 246.288 41.3558ZM260.565 43.3278C260.565 44.0238 260.855 44.5555 261.435 44.9228C262.034 45.2901 263.117 45.5318 264.683 45.6478C266.365 45.7831 267.641 46.1891 268.511 46.8658C269.4 47.5231 269.845 48.4898 269.845 49.7658V49.9398C269.845 50.6358 269.7 51.2641 269.41 51.8248C269.139 52.3661 268.752 52.8301 268.25 53.2168C267.766 53.6035 267.167 53.8935 266.452 54.0868C265.756 54.2995 264.992 54.4058 264.161 54.4058C263.039 54.4058 262.073 54.2608 261.261 53.9708C260.468 53.6615 259.801 53.2651 259.26 52.7818C258.738 52.2791 258.341 51.7185 258.071 51.0998C257.8 50.4618 257.645 49.8238 257.607 49.1858L259.753 48.6638C259.849 49.7658 260.275 50.6551 261.029 51.3318C261.783 51.9891 262.788 52.3178 264.045 52.3178C265.108 52.3178 265.959 52.1148 266.597 51.7088C267.254 51.2835 267.583 50.6938 267.583 49.9398C267.583 49.1278 267.264 48.5478 266.626 48.1998C265.988 47.8518 264.953 47.6295 263.523 47.5328C261.86 47.4168 260.584 47.0301 259.695 46.3728C258.805 45.7155 258.361 44.7585 258.361 43.5018V43.3278C258.361 42.6511 258.506 42.0615 258.796 41.5588C259.086 41.0368 259.472 40.6018 259.956 40.2538C260.458 39.9058 261.019 39.6448 261.638 39.4708C262.256 39.2968 262.904 39.2098 263.581 39.2098C264.528 39.2098 265.359 39.3451 266.075 39.6158C266.79 39.8671 267.389 40.2055 267.873 40.6308C268.356 41.0368 268.723 41.5105 268.975 42.0518C269.245 42.5931 269.419 43.1345 269.497 43.6758L267.351 44.1978C267.254 43.2698 266.877 42.5448 266.22 42.0228C265.582 41.5008 264.741 41.2398 263.697 41.2398C263.291 41.2398 262.894 41.2881 262.508 41.3848C262.14 41.4621 261.812 41.5878 261.522 41.7618C261.232 41.9358 261 42.1581 260.826 42.4288C260.652 42.6801 260.565 42.9798 260.565 43.3278ZM274.842 39.6158H279.366V33.6998H281.628V39.6158H287.196V41.7038H281.628V51.0418C281.628 51.6218 281.889 51.9118 282.411 51.9118H286.5V53.9998H281.599C280.941 53.9998 280.4 53.7871 279.975 53.3618C279.569 52.9365 279.366 52.3951 279.366 51.7378V41.7038H274.842V39.6158ZM316.387 31.4378C316.387 30.7805 316.59 30.2391 316.996 29.8138C317.422 29.3885 317.963 29.1758 318.62 29.1758H321.433V31.2638H319.432C318.91 31.2638 318.649 31.5538 318.649 32.1338V41.4138C318.649 42.0711 318.437 42.6125 318.011 43.0378C317.605 43.4631 317.064 43.6758 316.387 43.6758H316.039V44.0238H316.387C317.064 44.0238 317.605 44.2365 318.011 44.6618C318.437 45.0871 318.649 45.6285 318.649 46.2858V55.5658C318.649 56.1458 318.91 56.4358 319.432 56.4358H321.433V58.5238H318.62C317.963 58.5238 317.422 58.3111 316.996 57.8858C316.59 57.4605 316.387 56.9191 316.387 56.2618V46.2568C316.387 45.6961 316.126 45.4158 315.604 45.4158H314.125V42.2838H315.604C316.126 42.2838 316.387 42.0035 316.387 41.4428V31.4378ZM250.957 125.558C250.957 124.901 250.822 124.321 250.551 123.818C250.3 123.315 249.952 122.9 249.507 122.571C249.062 122.242 248.55 121.991 247.97 121.817C247.39 121.643 246.781 121.556 246.143 121.556C245.582 121.556 245.051 121.633 244.548 121.788C244.045 121.923 243.591 122.126 243.185 122.397C242.798 122.668 242.489 123.006 242.257 123.412C242.025 123.799 241.909 124.253 241.909 124.775V124.949C241.909 125.51 242.025 125.993 242.257 126.399C242.489 126.786 242.827 127.124 243.272 127.414C243.736 127.685 244.306 127.917 244.983 128.11C245.66 128.284 246.452 128.439 247.361 128.574C249.488 128.903 251.054 129.531 252.059 130.459C253.064 131.368 253.567 132.595 253.567 134.142V134.49C253.567 135.36 253.412 136.162 253.103 136.897C252.813 137.612 252.368 138.231 251.769 138.753C251.189 139.275 250.464 139.681 249.594 139.971C248.724 140.261 247.719 140.406 246.578 140.406C245.283 140.406 244.132 140.222 243.127 139.855C242.141 139.468 241.31 138.946 240.633 138.289C239.976 137.612 239.473 136.829 239.125 135.94C238.777 135.031 238.603 134.045 238.603 132.982V132.112H241.039V132.808C241.039 134.587 241.522 135.921 242.489 136.81C243.475 137.699 244.838 138.144 246.578 138.144C248.086 138.144 249.217 137.815 249.971 137.158C250.744 136.481 251.131 135.592 251.131 134.49V134.316C251.131 133.253 250.735 132.441 249.942 131.88C249.169 131.319 247.902 130.913 246.143 130.662C245.118 130.527 244.19 130.324 243.359 130.053C242.547 129.763 241.851 129.396 241.271 128.951C240.691 128.487 240.246 127.936 239.937 127.298C239.628 126.66 239.473 125.906 239.473 125.036V124.688C239.473 123.895 239.637 123.17 239.966 122.513C240.295 121.856 240.749 121.285 241.329 120.802C241.928 120.319 242.634 119.951 243.446 119.7C244.277 119.429 245.186 119.294 246.172 119.294C247.313 119.294 248.328 119.458 249.217 119.787C250.126 120.116 250.889 120.56 251.508 121.121C252.127 121.662 252.591 122.31 252.9 123.064C253.229 123.799 253.393 124.572 253.393 125.384V126.602H250.957V125.558ZM268.018 137.39H267.67C267.206 138.318 266.597 139.053 265.843 139.594C265.089 140.135 264.132 140.406 262.972 140.406C262.179 140.406 261.444 140.271 260.768 140C260.11 139.749 259.54 139.362 259.057 138.84C258.593 138.318 258.225 137.67 257.955 136.897C257.703 136.124 257.578 135.225 257.578 134.2V125.616H259.84V133.91C259.84 135.418 260.149 136.52 260.768 137.216C261.386 137.912 262.334 138.26 263.61 138.26C264.982 138.26 266.055 137.796 266.829 136.868C267.621 135.921 268.018 134.664 268.018 133.098V125.616H270.28V143.538C270.28 144.195 270.067 144.737 269.642 145.162C269.236 145.587 268.704 145.8 268.047 145.8H259.84V143.712H267.235C267.757 143.712 268.018 143.422 268.018 142.842V137.39ZM278.322 129.328C278.322 130.024 278.612 130.556 279.192 130.923C279.791 131.29 280.874 131.532 282.44 131.648C284.122 131.783 285.398 132.189 286.268 132.866C287.157 133.523 287.602 134.49 287.602 135.766V135.94C287.602 136.636 287.457 137.264 287.167 137.825C286.896 138.366 286.509 138.83 286.007 139.217C285.523 139.604 284.924 139.894 284.209 140.087C283.513 140.3 282.749 140.406 281.918 140.406C280.796 140.406 279.83 140.261 279.018 139.971C278.225 139.662 277.558 139.265 277.017 138.782C276.495 138.279 276.098 137.719 275.828 137.1C275.557 136.462 275.402 135.824 275.364 135.186L277.51 134.664C277.606 135.766 278.032 136.655 278.786 137.332C279.54 137.989 280.545 138.318 281.802 138.318C282.865 138.318 283.716 138.115 284.354 137.709C285.011 137.284 285.34 136.694 285.34 135.94C285.34 135.128 285.021 134.548 284.383 134.2C283.745 133.852 282.71 133.63 281.28 133.533C279.617 133.417 278.341 133.03 277.452 132.373C276.562 131.716 276.118 130.759 276.118 129.502V129.328C276.118 128.651 276.263 128.062 276.553 127.559C276.843 127.037 277.229 126.602 277.713 126.254C278.215 125.906 278.776 125.645 279.395 125.471C280.013 125.297 280.661 125.21 281.338 125.21C282.285 125.21 283.116 125.345 283.832 125.616C284.547 125.867 285.146 126.206 285.63 126.631C286.113 127.037 286.48 127.511 286.732 128.052C287.002 128.593 287.176 129.135 287.254 129.676L285.108 130.198C285.011 129.27 284.634 128.545 283.977 128.023C283.339 127.501 282.498 127.24 281.454 127.24C281.048 127.24 280.651 127.288 280.265 127.385C279.897 127.462 279.569 127.588 279.279 127.762C278.989 127.936 278.757 128.158 278.583 128.429C278.409 128.68 278.322 128.98 278.322 129.328ZM292.598 125.616H297.122V119.7H299.384V125.616H304.952V127.704H299.384V137.042C299.384 137.622 299.645 137.912 300.167 137.912H304.256V140H299.355C298.698 140 298.157 139.787 297.731 139.362C297.325 138.937 297.122 138.395 297.122 137.738V127.704H292.598V125.616ZM312.501 133.504C312.559 134.935 313.004 136.085 313.835 136.955C314.667 137.825 315.827 138.26 317.315 138.26C317.992 138.26 318.582 138.183 319.084 138.028C319.587 137.873 320.012 137.661 320.36 137.39C320.728 137.119 321.018 136.81 321.23 136.462C321.462 136.095 321.646 135.708 321.781 135.302L323.927 135.882C323.521 137.216 322.767 138.308 321.665 139.159C320.583 139.99 319.113 140.406 317.257 140.406C316.233 140.406 315.285 140.232 314.415 139.884C313.565 139.517 312.83 139.004 312.211 138.347C311.593 137.69 311.109 136.907 310.761 135.998C310.413 135.089 310.239 134.084 310.239 132.982V132.286C310.239 131.281 310.413 130.343 310.761 129.473C311.129 128.603 311.631 127.859 312.269 127.24C312.907 126.602 313.652 126.109 314.502 125.761C315.372 125.394 316.31 125.21 317.315 125.21C318.495 125.21 319.51 125.432 320.36 125.877C321.23 126.302 321.936 126.834 322.477 127.472C323.038 128.11 323.444 128.806 323.695 129.56C323.966 130.314 324.101 131.01 324.101 131.648V133.504H312.501ZM317.315 127.356C316.677 127.356 316.078 127.462 315.517 127.675C314.976 127.868 314.493 128.149 314.067 128.516C313.661 128.883 313.323 129.318 313.052 129.821C312.801 130.304 312.637 130.836 312.559 131.416H321.839C321.801 130.797 321.646 130.237 321.375 129.734C321.124 129.231 320.786 128.806 320.36 128.458C319.954 128.11 319.481 127.839 318.939 127.646C318.417 127.453 317.876 127.356 317.315 127.356ZM342.438 140H340.176V129.676C340.176 128.999 340.021 128.448 339.712 128.023C339.403 127.578 338.91 127.356 338.233 127.356C337.595 127.356 337.073 127.598 336.667 128.081C336.28 128.545 336.087 129.27 336.087 130.256V140H333.825V129.56C333.825 128.922 333.651 128.4 333.303 127.994C332.955 127.569 332.491 127.356 331.911 127.356C331.215 127.356 330.674 127.607 330.287 128.11C329.92 128.613 329.736 129.27 329.736 130.082V140H327.474V125.616H329.736V127.182H330.084C330.335 126.505 330.703 126.012 331.186 125.703C331.669 125.374 332.24 125.21 332.897 125.21C333.593 125.21 334.163 125.394 334.608 125.761C335.072 126.128 335.391 126.602 335.565 127.182H335.913C336.57 125.867 337.614 125.21 339.045 125.21C340.128 125.21 340.959 125.558 341.539 126.254C342.138 126.931 342.438 127.82 342.438 128.922V140ZM350.683 138.376C350.683 137.815 350.876 137.342 351.263 136.955C351.669 136.549 352.152 136.346 352.713 136.346C353.274 136.346 353.747 136.549 354.134 136.955C354.54 137.342 354.743 137.815 354.743 138.376C354.743 138.937 354.54 139.42 354.134 139.826C353.747 140.213 353.274 140.406 352.713 140.406C352.152 140.406 351.669 140.213 351.263 139.826C350.876 139.42 350.683 138.937 350.683 138.376ZM421.71 138.376C421.71 137.815 421.904 137.342 422.29 136.955C422.696 136.549 423.18 136.346 423.74 136.346C424.301 136.346 424.775 136.549 425.161 136.955C425.567 137.342 425.77 137.815 425.77 138.376C425.77 138.937 425.567 139.42 425.161 139.826C424.775 140.213 424.301 140.406 423.74 140.406C423.18 140.406 422.696 140.213 422.29 139.826C421.904 139.42 421.71 138.937 421.71 138.376ZM436.886 145.8H434.624V125.616H436.886V127.878H437.234C437.737 127.008 438.433 126.351 439.322 125.906C440.211 125.442 441.178 125.21 442.222 125.21C443.111 125.21 443.952 125.374 444.745 125.703C445.538 126.032 446.234 126.505 446.833 127.124C447.452 127.743 447.935 128.506 448.283 129.415C448.65 130.324 448.834 131.358 448.834 132.518V133.098C448.834 134.277 448.66 135.321 448.312 136.23C447.964 137.139 447.481 137.902 446.862 138.521C446.263 139.14 445.557 139.613 444.745 139.942C443.933 140.251 443.073 140.406 442.164 140.406C441.7 140.406 441.226 140.348 440.743 140.232C440.26 140.135 439.796 139.981 439.351 139.768C438.926 139.536 438.529 139.265 438.162 138.956C437.795 138.627 437.485 138.241 437.234 137.796H436.886V145.8ZM441.7 138.26C442.396 138.26 443.034 138.144 443.614 137.912C444.194 137.661 444.697 137.313 445.122 136.868C445.567 136.423 445.905 135.882 446.137 135.244C446.388 134.606 446.514 133.891 446.514 133.098V132.518C446.514 131.745 446.388 131.049 446.137 130.43C445.905 129.792 445.567 129.251 445.122 128.806C444.697 128.342 444.184 127.984 443.585 127.733C443.005 127.482 442.377 127.356 441.7 127.356C441.023 127.356 440.395 127.491 439.815 127.762C439.235 128.013 438.723 128.371 438.278 128.835C437.853 129.299 437.514 129.86 437.263 130.517C437.012 131.155 436.886 131.861 436.886 132.634V132.982C436.886 133.775 437.012 134.5 437.263 135.157C437.514 135.795 437.853 136.346 438.278 136.81C438.723 137.274 439.235 137.632 439.815 137.883C440.395 138.134 441.023 138.26 441.7 138.26ZM452.091 125.616H457.311V127.53H457.659C458.026 126.737 458.548 126.157 459.225 125.79C459.902 125.403 460.675 125.21 461.545 125.21C462.995 125.21 464.165 125.684 465.054 126.631C465.943 127.578 466.417 128.961 466.475 130.778L464.097 131.126C464.097 129.792 463.778 128.835 463.14 128.255C462.502 127.656 461.719 127.356 460.791 127.356C460.192 127.356 459.67 127.472 459.225 127.704C458.8 127.936 458.442 128.255 458.152 128.661C457.862 129.067 457.649 129.541 457.514 130.082C457.379 130.623 457.311 131.203 457.311 131.822V137.912H460.965V140H451.743V137.912H455.049V127.704H452.091V125.616ZM475.126 121.324C475.126 120.763 475.319 120.29 475.706 119.903C476.112 119.497 476.595 119.294 477.156 119.294C477.716 119.294 478.19 119.497 478.577 119.903C478.983 120.29 479.186 120.763 479.186 121.324C479.186 121.885 478.983 122.368 478.577 122.774C478.19 123.161 477.716 123.354 477.156 123.354C476.595 123.354 476.112 123.161 475.706 122.774C475.319 122.368 475.126 121.885 475.126 121.324ZM471.008 137.912H476.054V127.704H471.53V125.616H478.316V137.912H483.014V140H471.008V137.912ZM490.679 140H488.417V125.616H490.679V128.052H491.027C491.916 126.157 493.463 125.21 495.667 125.21C497.329 125.21 498.654 125.732 499.64 126.776C500.626 127.801 501.119 129.347 501.119 131.416V140H498.857V131.88C498.857 130.372 498.518 129.241 497.842 128.487C497.165 127.733 496.247 127.356 495.087 127.356C493.714 127.356 492.631 127.83 491.839 128.777C491.065 129.705 490.679 130.952 490.679 132.518V140ZM193.713 170.443C193.713 171.004 193.974 171.284 194.496 171.284H195.975V174.416H194.496C193.974 174.416 193.713 174.696 193.713 175.257V185.262C193.713 185.919 193.501 186.461 193.075 186.886C192.669 187.311 192.138 187.524 191.48 187.524H188.667V185.436H190.668C191.19 185.436 191.451 185.146 191.451 184.566V175.286C191.451 174.629 191.654 174.087 192.06 173.662C192.486 173.237 193.037 173.024 193.713 173.024H194.061V172.676H193.713C193.037 172.676 192.486 172.463 192.06 172.038C191.654 171.613 191.451 171.071 191.451 170.414V161.134C191.451 160.554 191.19 160.264 190.668 160.264H188.667V158.176H191.48C192.138 158.176 192.669 158.389 193.075 158.814C193.501 159.239 193.713 159.781 193.713 160.438V170.443ZM122.686 213.443C122.686 214.004 122.947 214.284 123.469 214.284H124.948V217.416H123.469C122.947 217.416 122.686 217.696 122.686 218.257V228.262C122.686 228.919 122.473 229.461 122.048 229.886C121.642 230.311 121.11 230.524 120.453 230.524H117.64V228.436H119.641C120.163 228.436 120.424 228.146 120.424 227.566V218.286C120.424 217.629 120.627 217.087 121.033 216.662C121.458 216.237 122.009 216.024 122.686 216.024H123.034V215.676H122.686C122.009 215.676 121.458 215.463 121.033 215.038C120.627 214.613 120.424 214.071 120.424 213.414V204.134C120.424 203.554 120.163 203.264 119.641 203.264H117.64V201.176H120.453C121.11 201.176 121.642 201.389 122.048 201.814C122.473 202.239 122.686 202.781 122.686 203.438V213.443Z" fill="white"/>
<path d="M377.691 132.982C377.691 134.181 377.488 135.244 377.082 136.172C376.695 137.081 376.173 137.854 375.516 138.492C374.858 139.111 374.085 139.584 373.196 139.913C372.326 140.242 371.417 140.406 370.47 140.406C369.503 140.406 368.585 140.242 367.715 139.913C366.845 139.584 366.081 139.111 365.424 138.492C364.766 137.854 364.235 137.081 363.829 136.172C363.442 135.244 363.249 134.181 363.249 132.982V132.634C363.249 131.455 363.442 130.411 363.829 129.502C364.235 128.574 364.766 127.791 365.424 127.153C366.1 126.515 366.874 126.032 367.744 125.703C368.614 125.374 369.522 125.21 370.47 125.21C371.417 125.21 372.326 125.374 373.196 125.703C374.066 126.032 374.829 126.515 375.487 127.153C376.163 127.791 376.695 128.574 377.082 129.502C377.488 130.411 377.691 131.455 377.691 132.634V132.982ZM370.47 138.26C371.166 138.26 371.804 138.144 372.384 137.912C372.983 137.661 373.505 137.303 373.95 136.839C374.394 136.375 374.742 135.824 374.994 135.186C375.245 134.529 375.371 133.794 375.371 132.982V132.634C375.371 131.861 375.245 131.155 374.994 130.517C374.742 129.86 374.394 129.299 373.95 128.835C373.505 128.371 372.983 128.013 372.384 127.762C371.784 127.491 371.146 127.356 370.47 127.356C369.793 127.356 369.155 127.491 368.556 127.762C367.956 128.013 367.434 128.371 366.99 128.835C366.545 129.299 366.197 129.86 365.946 130.517C365.694 131.155 365.569 131.861 365.569 132.634V132.982C365.569 133.794 365.694 134.529 365.946 135.186C366.197 135.824 366.545 136.375 366.99 136.839C367.434 137.303 367.947 137.661 368.527 137.912C369.126 138.144 369.774 138.26 370.47 138.26ZM392.142 125.616H394.404V140H392.142V137.39H391.794C391.33 138.318 390.721 139.053 389.967 139.594C389.213 140.135 388.256 140.406 387.096 140.406C386.303 140.406 385.568 140.271 384.892 140C384.234 139.749 383.664 139.362 383.181 138.84C382.717 138.318 382.349 137.67 382.079 136.897C381.827 136.124 381.702 135.225 381.702 134.2V125.616H383.964V133.91C383.964 135.418 384.273 136.52 384.892 137.216C385.51 137.912 386.458 138.26 387.734 138.26C389.106 138.26 390.179 137.796 390.953 136.868C391.745 135.921 392.142 134.664 392.142 133.098V125.616ZM399.139 125.616H403.663V119.7H405.925V125.616H411.493V127.704H405.925V137.042C405.925 137.622 406.186 137.912 406.708 137.912H410.797V140H405.896C405.239 140 404.698 139.787 404.272 139.362C403.866 138.937 403.663 138.395 403.663 137.738V127.704H399.139V125.616Z" fill="#EB2668"/>
</g>
</svg>
