<svg width="510" height="279" viewBox="0 0 510 279" fill="none" xmlns="http://www.w3.org/2000/svg">
    <rect width="510" height="279" fill="white"/>
    <rect width="510" height="279" fill="white"/>
    <rect width="82" height="279" fill="#E6E6E6"/>
    <path d="M47.0442 51.738V34.773H46.6962L43.3612 42.4H40.9542V42.226L44.7532 33.7H49.4802V51.738H55.2222V54H41.3022V51.738H47.0442ZM55.0192 94.738V97H41.2732V93.52C41.2732 92.592 41.4278 91.7897 41.7372 91.113C42.0465 90.417 42.4815 89.8273 43.0422 89.344C43.6222 88.8413 44.3182 88.4257 45.1302 88.097C45.9422 87.7683 46.8605 87.488 47.8852 87.256C49.6058 86.8693 50.8432 86.3183 51.5972 85.603C52.3705 84.8877 52.7572 84.008 52.7572 82.964V82.79C52.7572 82.268 52.6702 81.7557 52.4962 81.253C52.3222 80.7503 52.0515 80.296 51.6842 79.89C51.3168 79.484 50.8432 79.165 50.2632 78.933C49.7025 78.6817 49.0258 78.556 48.2332 78.556C46.7445 78.556 45.5845 79.0103 44.7532 79.919C43.9412 80.8277 43.5352 82.036 43.5352 83.544V84.82H41.0992V83.37C41.0992 82.442 41.2538 81.5527 41.5632 80.702C41.8725 79.8513 42.3268 79.0973 42.9262 78.44C43.5255 77.7827 44.2698 77.2607 45.1592 76.874C46.0485 76.4873 47.0732 76.294 48.2332 76.294C49.4125 76.294 50.4372 76.4777 51.3072 76.845C52.1772 77.193 52.9022 77.6667 53.4822 78.266C54.0622 78.846 54.4875 79.513 54.7582 80.267C55.0482 81.0017 55.1932 81.7557 55.1932 82.529V83.051C55.1932 84.5977 54.7098 85.922 53.7432 87.024C52.7765 88.1067 51.2298 88.88 49.1032 89.344C47.2472 89.75 45.8842 90.2913 45.0142 90.968C44.1442 91.6253 43.7092 92.592 43.7092 93.868V94.738H55.0192ZM46.1162 129.908V126.544L52.7282 122.31V121.962H41.2442V119.7H54.8162V123.412L48.2042 127.646V127.994H49.3642C50.1375 127.994 50.8818 128.12 51.5972 128.371C52.3125 128.622 52.9408 128.99 53.4822 129.473C54.0428 129.956 54.4875 130.556 54.8162 131.271C55.1642 131.967 55.3382 132.779 55.3382 133.707V134.229C55.3382 135.099 55.1642 135.911 54.8162 136.665C54.4682 137.419 53.9848 138.076 53.3662 138.637C52.7475 139.178 52.0128 139.613 51.1622 139.942C50.3308 140.251 49.4222 140.406 48.4362 140.406C47.2955 140.406 46.2708 140.232 45.3622 139.884C44.4535 139.536 43.6802 139.062 43.0422 138.463C42.4042 137.844 41.9112 137.129 41.5632 136.317C41.2345 135.486 41.0702 134.606 41.0702 133.678V132.112H43.5062V133.504C43.5062 134.239 43.6222 134.896 43.8542 135.476C44.1055 136.037 44.4438 136.52 44.8692 136.926C45.3138 137.313 45.8358 137.612 46.4352 137.825C47.0345 138.038 47.6822 138.144 48.3782 138.144C49.0162 138.144 49.6058 138.038 50.1472 137.825C50.7078 137.612 51.1912 137.322 51.5972 136.955C52.0032 136.568 52.3222 136.124 52.5542 135.621C52.7862 135.099 52.9022 134.548 52.9022 133.968V133.794C52.9022 132.576 52.5155 131.629 51.7422 130.952C50.9688 130.256 50.0022 129.908 48.8422 129.908H46.1162ZM47.7692 162.7H52.4962V176.91H55.6282V179.172H52.4962V183H50.0602V179.172H40.6642V175.808L47.7692 162.7ZM42.7522 176.562V176.91H50.0602V163.744H49.7122L42.7522 176.562ZM41.5052 216.43V205.7H54.2072V207.962H43.8832V215.212H44.2312C44.4245 214.825 44.6758 214.458 44.9852 214.11C45.2945 213.743 45.6522 213.424 46.0582 213.153C46.4835 212.882 46.9572 212.67 47.4792 212.515C48.0012 212.341 48.5812 212.254 49.2192 212.254C50.1472 212.254 50.9978 212.409 51.7712 212.718C52.5638 213.027 53.2405 213.462 53.8012 214.023C54.3618 214.584 54.7968 215.26 55.1062 216.053C55.4348 216.846 55.5992 217.725 55.5992 218.692V219.214C55.5992 220.181 55.4445 221.099 55.1352 221.969C54.8258 222.82 54.3715 223.583 53.7722 224.26C53.1728 224.917 52.4285 225.439 51.5392 225.826C50.6498 226.213 49.6252 226.406 48.4652 226.406C47.2858 226.406 46.2418 226.232 45.3332 225.884C44.4245 225.536 43.6608 225.053 43.0422 224.434C42.4235 223.815 41.9498 223.09 41.6212 222.259C41.3118 221.408 41.1572 220.49 41.1572 219.504V218.692H43.5932V219.33C43.5932 220.935 44.0378 222.143 44.9272 222.955C45.8358 223.748 47.0152 224.144 48.4652 224.144C49.2385 224.144 49.9152 224.009 50.4952 223.738C51.0945 223.448 51.5875 223.071 51.9742 222.607C52.3802 222.124 52.6798 221.573 52.8732 220.954C53.0665 220.316 53.1632 219.659 53.1632 218.982V218.808C53.1632 218.209 53.0568 217.648 52.8442 217.126C52.6508 216.604 52.3705 216.15 52.0032 215.763C51.6552 215.376 51.2202 215.077 50.6982 214.864C50.1955 214.632 49.6445 214.516 49.0452 214.516C48.6392 214.516 48.2622 214.574 47.9142 214.69C47.5855 214.806 47.2955 214.961 47.0442 215.154C46.7928 215.328 46.5802 215.531 46.4062 215.763C46.2515 215.995 46.1452 216.217 46.0872 216.43H41.5052ZM52.3802 254.616C52.3802 253.359 51.9935 252.354 51.2202 251.6C50.4468 250.827 49.3738 250.44 48.0012 250.44C47.3438 250.44 46.7348 250.556 46.1742 250.788C45.6328 251.02 45.1592 251.358 44.7532 251.803C44.3665 252.228 44.0572 252.741 43.8252 253.34C43.6125 253.939 43.5062 254.597 43.5062 255.312V258.328H43.8542C44.3182 257.477 44.9755 256.81 45.8262 256.327C46.6962 255.844 47.6628 255.602 48.7262 255.602C49.6542 255.602 50.5145 255.757 51.3072 256.066C52.0998 256.356 52.7765 256.791 53.3372 257.371C53.9172 257.951 54.3618 258.657 54.6712 259.488C54.9998 260.3 55.1642 261.228 55.1642 262.272V262.62C55.1642 263.625 54.9805 264.544 54.6132 265.375C54.2652 266.206 53.7722 266.922 53.1342 267.521C52.5155 268.12 51.7712 268.584 50.9012 268.913C50.0505 269.242 49.1225 269.406 48.1172 269.406C47.1118 269.406 46.1742 269.242 45.3042 268.913C44.4535 268.584 43.7092 268.13 43.0712 267.55C42.4525 266.951 41.9595 266.245 41.5922 265.433C41.2442 264.602 41.0702 263.693 41.0702 262.707V255.312C41.0702 254.249 41.2538 253.282 41.6212 252.412C41.9885 251.542 42.4912 250.807 43.1292 250.208C43.7672 249.589 44.5018 249.116 45.3332 248.787C46.1838 248.458 47.0925 248.294 48.0592 248.294C49.0258 248.294 49.9248 248.439 50.7562 248.729C51.5875 249.019 52.3028 249.444 52.9022 250.005C53.5015 250.546 53.9655 251.213 54.2942 252.006C54.6422 252.779 54.8162 253.649 54.8162 254.616H52.3802ZM48.1172 267.26C48.8132 267.26 49.4415 267.154 50.0022 266.941C50.5822 266.709 51.0752 266.39 51.4812 265.984C51.8872 265.578 52.1965 265.095 52.4092 264.534C52.6218 263.973 52.7282 263.355 52.7282 262.678V262.33C52.7282 261.653 52.6122 261.035 52.3802 260.474C52.1482 259.913 51.8292 259.43 51.4232 259.024C51.0172 258.618 50.5242 258.309 49.9442 258.096C49.3835 257.864 48.7745 257.748 48.1172 257.748C47.4598 257.748 46.8508 257.864 46.2902 258.096C45.7295 258.328 45.2365 258.647 44.8112 259.053C44.4052 259.459 44.0862 259.933 43.8542 260.474C43.6222 261.015 43.5062 261.595 43.5062 262.214V262.765C43.5062 263.403 43.6125 264.002 43.8252 264.563C44.0378 265.104 44.3472 265.578 44.7532 265.984C45.1592 266.39 45.6425 266.709 46.2032 266.941C46.7832 267.154 47.4212 267.26 48.1172 267.26Z"
          fill="#070707" fill-opacity="0.31"/>
    <path d="M128.979 48.896C128.824 49.6887 128.554 50.4233 128.167 51.1C127.8 51.7767 127.326 52.3663 126.746 52.869C126.166 53.3523 125.489 53.7293 124.716 54C123.943 54.2707 123.082 54.406 122.135 54.406C121.13 54.406 120.173 54.2417 119.264 53.913C118.375 53.5843 117.592 53.1107 116.915 52.492C116.238 51.854 115.697 51.0807 115.291 50.172C114.904 49.2633 114.711 48.2193 114.711 47.04V46.692C114.711 45.532 114.904 44.488 115.291 43.56C115.697 42.632 116.238 41.849 116.915 41.211C117.592 40.573 118.375 40.08 119.264 39.732C120.173 39.384 121.13 39.21 122.135 39.21C123.044 39.21 123.885 39.3453 124.658 39.616C125.431 39.8867 126.108 40.2733 126.688 40.776C127.287 41.2593 127.771 41.8393 128.138 42.516C128.525 43.1927 128.786 43.9273 128.921 44.72L126.659 45.242C126.601 44.7393 126.456 44.256 126.224 43.792C126.011 43.3087 125.712 42.893 125.325 42.545C124.958 42.1777 124.503 41.8877 123.962 41.675C123.421 41.4623 122.792 41.356 122.077 41.356C121.381 41.356 120.724 41.4913 120.105 41.762C119.506 42.0133 118.974 42.3807 118.51 42.864C118.046 43.328 117.679 43.8887 117.408 44.546C117.157 45.2033 117.031 45.9187 117.031 46.692V47.04C117.031 47.852 117.157 48.5867 117.408 49.244C117.679 49.882 118.046 50.4233 118.51 50.868C118.974 51.3127 119.515 51.6607 120.134 51.912C120.753 52.144 121.42 52.26 122.135 52.26C122.85 52.26 123.469 52.1537 123.991 51.941C124.532 51.709 124.987 51.419 125.354 51.071C125.741 50.7037 126.04 50.288 126.253 49.824C126.485 49.36 126.64 48.8767 126.717 48.374L128.979 48.896ZM133.28 51.912H138.5V35.788H133.454V33.7H140.762V51.912H145.982V54H133.28V51.912ZM161.477 51.564H161.129C160.665 52.5307 160.017 53.246 159.186 53.71C158.374 54.174 157.513 54.406 156.605 54.406C155.657 54.406 154.778 54.2513 153.966 53.942C153.154 53.6133 152.438 53.1397 151.82 52.521C151.22 51.883 150.747 51.1097 150.399 50.201C150.051 49.2923 149.877 48.2387 149.877 47.04V46.576C149.877 45.3967 150.051 44.3527 150.399 43.444C150.747 42.5353 151.22 41.7717 151.82 41.153C152.438 40.515 153.154 40.0317 153.966 39.703C154.778 39.3743 155.638 39.21 156.547 39.21C157.533 39.21 158.422 39.4323 159.215 39.877C160.027 40.3023 160.665 40.9693 161.129 41.878H161.477V39.616H163.739V51.042C163.739 51.622 164 51.912 164.522 51.912H165.247V54H163.71C163.052 54 162.511 53.7873 162.086 53.362C161.68 52.9367 161.477 52.3953 161.477 51.738V51.564ZM156.837 52.26C157.513 52.26 158.132 52.1343 158.693 51.883C159.273 51.6317 159.766 51.274 160.172 50.81C160.578 50.346 160.897 49.795 161.129 49.157C161.361 48.4997 161.477 47.7747 161.477 46.982V46.634C161.477 45.8607 161.361 45.155 161.129 44.517C160.897 43.8597 160.568 43.299 160.143 42.835C159.737 42.371 159.244 42.0133 158.664 41.762C158.103 41.4913 157.494 41.356 156.837 41.356C156.16 41.356 155.541 41.4817 154.981 41.733C154.42 41.9843 153.927 42.342 153.502 42.806C153.096 43.2507 152.777 43.8017 152.545 44.459C152.313 45.097 152.197 45.8027 152.197 46.576V47.04C152.197 48.6833 152.622 49.969 153.473 50.897C154.343 51.8057 155.464 52.26 156.837 52.26ZM171.781 43.328C171.781 44.024 172.071 44.5557 172.651 44.923C173.25 45.2903 174.333 45.532 175.899 45.648C177.581 45.7833 178.857 46.1893 179.727 46.866C180.616 47.5233 181.061 48.49 181.061 49.766V49.94C181.061 50.636 180.916 51.2643 180.626 51.825C180.355 52.3663 179.968 52.8303 179.466 53.217C178.982 53.6037 178.383 53.8937 177.668 54.087C176.972 54.2997 176.208 54.406 175.377 54.406C174.255 54.406 173.289 54.261 172.477 53.971C171.684 53.6617 171.017 53.2653 170.476 52.782C169.954 52.2793 169.557 51.7187 169.287 51.1C169.016 50.462 168.861 49.824 168.823 49.186L170.969 48.664C171.065 49.766 171.491 50.6553 172.245 51.332C172.999 51.9893 174.004 52.318 175.261 52.318C176.324 52.318 177.175 52.115 177.813 51.709C178.47 51.2837 178.799 50.694 178.799 49.94C178.799 49.128 178.48 48.548 177.842 48.2C177.204 47.852 176.169 47.6297 174.739 47.533C173.076 47.417 171.8 47.0303 170.911 46.373C170.021 45.7157 169.577 44.7587 169.577 43.502V43.328C169.577 42.6513 169.722 42.0617 170.012 41.559C170.302 41.037 170.688 40.602 171.172 40.254C171.674 39.906 172.235 39.645 172.854 39.471C173.472 39.297 174.12 39.21 174.797 39.21C175.744 39.21 176.575 39.3453 177.291 39.616C178.006 39.8673 178.605 40.2057 179.089 40.631C179.572 41.037 179.939 41.5107 180.191 42.052C180.461 42.5933 180.635 43.1347 180.713 43.676L178.567 44.198C178.47 43.27 178.093 42.545 177.436 42.023C176.798 41.501 175.957 41.24 174.913 41.24C174.507 41.24 174.11 41.2883 173.724 41.385C173.356 41.4623 173.028 41.588 172.738 41.762C172.448 41.936 172.216 42.1583 172.042 42.429C171.868 42.6803 171.781 42.98 171.781 43.328ZM189.537 43.328C189.537 44.024 189.827 44.5557 190.407 44.923C191.007 45.2903 192.089 45.532 193.655 45.648C195.337 45.7833 196.613 46.1893 197.483 46.866C198.373 47.5233 198.817 48.49 198.817 49.766V49.94C198.817 50.636 198.672 51.2643 198.382 51.825C198.112 52.3663 197.725 52.8303 197.222 53.217C196.739 53.6037 196.14 53.8937 195.424 54.087C194.728 54.2997 193.965 54.406 193.133 54.406C192.012 54.406 191.045 54.261 190.233 53.971C189.441 53.6617 188.774 53.2653 188.232 52.782C187.71 52.2793 187.314 51.7187 187.043 51.1C186.773 50.462 186.618 49.824 186.579 49.186L188.725 48.664C188.822 49.766 189.247 50.6553 190.001 51.332C190.755 51.9893 191.761 52.318 193.017 52.318C194.081 52.318 194.931 52.115 195.569 51.709C196.227 51.2837 196.555 50.694 196.555 49.94C196.555 49.128 196.236 48.548 195.598 48.2C194.96 47.852 193.926 47.6297 192.495 47.533C190.833 47.417 189.557 47.0303 188.667 46.373C187.778 45.7157 187.333 44.7587 187.333 43.502V43.328C187.333 42.6513 187.478 42.0617 187.768 41.559C188.058 41.037 188.445 40.602 188.928 40.254C189.431 39.906 189.992 39.645 190.61 39.471C191.229 39.297 191.877 39.21 192.553 39.21C193.501 39.21 194.332 39.3453 195.047 39.616C195.763 39.8673 196.362 40.2057 196.845 40.631C197.329 41.037 197.696 41.5107 197.947 42.052C198.218 42.5933 198.392 43.1347 198.469 43.676L196.323 44.198C196.227 43.27 195.85 42.545 195.192 42.023C194.554 41.501 193.713 41.24 192.669 41.24C192.263 41.24 191.867 41.2883 191.48 41.385C191.113 41.4623 190.784 41.588 190.494 41.762C190.204 41.936 189.972 42.1583 189.798 42.429C189.624 42.6803 189.537 42.98 189.537 43.328ZM188.29 102.8H186.028V82.616H188.29V84.878H188.638C189.141 84.008 189.837 83.3507 190.726 82.906C191.616 82.442 192.582 82.21 193.626 82.21C194.516 82.21 195.357 82.3743 196.149 82.703C196.942 83.0317 197.638 83.5053 198.237 84.124C198.856 84.7427 199.339 85.5063 199.687 86.415C200.055 87.3237 200.238 88.358 200.238 89.518V90.098C200.238 91.2773 200.064 92.3213 199.716 93.23C199.368 94.1387 198.885 94.9023 198.266 95.521C197.667 96.1397 196.961 96.6133 196.149 96.942C195.337 97.2513 194.477 97.406 193.568 97.406C193.104 97.406 192.631 97.348 192.147 97.232C191.664 97.1353 191.2 96.9807 190.755 96.768C190.33 96.536 189.934 96.2653 189.566 95.956C189.199 95.6273 188.89 95.2407 188.638 94.796H188.29V102.8ZM193.104 95.26C193.8 95.26 194.438 95.144 195.018 94.912C195.598 94.6607 196.101 94.3127 196.526 93.868C196.971 93.4233 197.309 92.882 197.541 92.244C197.793 91.606 197.918 90.8907 197.918 90.098V89.518C197.918 88.7447 197.793 88.0487 197.541 87.43C197.309 86.792 196.971 86.2507 196.526 85.806C196.101 85.342 195.589 84.9843 194.989 84.733C194.409 84.4817 193.781 84.356 193.104 84.356C192.428 84.356 191.799 84.4913 191.219 84.762C190.639 85.0133 190.127 85.371 189.682 85.835C189.257 86.299 188.919 86.8597 188.667 87.517C188.416 88.155 188.29 88.8607 188.29 89.634V89.982C188.29 90.7747 188.416 91.4997 188.667 92.157C188.919 92.795 189.257 93.346 189.682 93.81C190.127 94.274 190.639 94.6317 191.219 94.883C191.799 95.1343 192.428 95.26 193.104 95.26ZM214.573 82.616H216.835V97H214.573V94.39H214.225C213.761 95.318 213.152 96.0527 212.398 96.594C211.644 97.1353 210.687 97.406 209.527 97.406C208.735 97.406 208 97.2707 207.323 97C206.666 96.7487 206.096 96.362 205.612 95.84C205.148 95.318 204.781 94.6703 204.51 93.897C204.259 93.1237 204.133 92.2247 204.133 91.2V82.616H206.395V90.91C206.395 92.418 206.705 93.52 207.323 94.216C207.942 94.912 208.889 95.26 210.165 95.26C211.538 95.26 212.611 94.796 213.384 93.868C214.177 92.9207 214.573 91.664 214.573 90.098V82.616ZM223.804 97H221.542V76.7H223.804V84.878H224.152C224.655 84.008 225.351 83.3507 226.24 82.906C227.129 82.442 228.096 82.21 229.14 82.21C230.029 82.21 230.87 82.3743 231.663 82.703C232.456 83.0317 233.152 83.5053 233.751 84.124C234.37 84.7427 234.853 85.5063 235.201 86.415C235.568 87.3237 235.752 88.358 235.752 89.518V90.098C235.752 91.2773 235.578 92.3213 235.23 93.23C234.882 94.1387 234.399 94.9023 233.78 95.521C233.181 96.1397 232.475 96.6133 231.663 96.942C230.851 97.2513 229.991 97.406 229.082 97.406C228.618 97.406 228.144 97.348 227.661 97.232C227.178 97.1353 226.714 96.9807 226.269 96.768C225.844 96.536 225.447 96.2653 225.08 95.956C224.713 95.6273 224.403 95.2407 224.152 94.796H223.804V97ZM228.618 95.26C229.314 95.26 229.952 95.144 230.532 94.912C231.112 94.6607 231.615 94.3127 232.04 93.868C232.485 93.4233 232.823 92.882 233.055 92.244C233.306 91.606 233.432 90.8907 233.432 90.098V89.518C233.432 88.7447 233.306 88.0487 233.055 87.43C232.823 86.792 232.485 86.2507 232.04 85.806C231.615 85.342 231.102 84.9843 230.503 84.733C229.923 84.4817 229.295 84.356 228.618 84.356C227.941 84.356 227.313 84.4913 226.733 84.762C226.153 85.0133 225.641 85.371 225.196 85.835C224.771 86.299 224.432 86.8597 224.181 87.517C223.93 88.155 223.804 88.8607 223.804 89.634V89.982C223.804 90.7747 223.93 91.4997 224.181 92.157C224.432 92.795 224.771 93.346 225.196 93.81C225.641 94.274 226.153 94.6317 226.733 94.883C227.313 95.1343 227.941 95.26 228.618 95.26ZM239.821 94.912H245.041V78.788H239.995V76.7H247.303V94.912H252.523V97H239.821V94.912ZM262.044 78.324C262.044 77.7633 262.237 77.2897 262.624 76.903C263.03 76.497 263.513 76.294 264.074 76.294C264.634 76.294 265.108 76.497 265.495 76.903C265.901 77.2897 266.104 77.7633 266.104 78.324C266.104 78.8847 265.901 79.368 265.495 79.774C265.108 80.1607 264.634 80.354 264.074 80.354C263.513 80.354 263.03 80.1607 262.624 79.774C262.237 79.368 262.044 78.8847 262.044 78.324ZM257.926 94.912H262.972V84.704H258.448V82.616H265.234V94.912H269.932V97H257.926V94.912ZM288.791 91.896C288.636 92.6887 288.365 93.4233 287.979 94.1C287.611 94.7767 287.138 95.3663 286.558 95.869C285.978 96.3523 285.301 96.7293 284.528 97C283.754 97.2707 282.894 97.406 281.947 97.406C280.941 97.406 279.984 97.2417 279.076 96.913C278.186 96.5843 277.403 96.1107 276.727 95.492C276.05 94.854 275.509 94.0807 275.103 93.172C274.716 92.2633 274.523 91.2193 274.523 90.04V89.692C274.523 88.532 274.716 87.488 275.103 86.56C275.509 85.632 276.05 84.849 276.727 84.211C277.403 83.573 278.186 83.08 279.076 82.732C279.984 82.384 280.941 82.21 281.947 82.21C282.855 82.21 283.696 82.3453 284.47 82.616C285.243 82.8867 285.92 83.2733 286.5 83.776C287.099 84.2593 287.582 84.8393 287.95 85.516C288.336 86.1927 288.597 86.9273 288.733 87.72L286.471 88.242C286.413 87.7393 286.268 87.256 286.036 86.792C285.823 86.3087 285.523 85.893 285.137 85.545C284.769 85.1777 284.315 84.8877 283.774 84.675C283.232 84.4623 282.604 84.356 281.889 84.356C281.193 84.356 280.535 84.4913 279.917 84.762C279.317 85.0133 278.786 85.3807 278.322 85.864C277.858 86.328 277.49 86.8887 277.22 87.546C276.968 88.2033 276.843 88.9187 276.843 89.692V90.04C276.843 90.852 276.968 91.5867 277.22 92.244C277.49 92.882 277.858 93.4233 278.322 93.868C278.786 94.3127 279.327 94.6607 279.946 94.912C280.564 95.144 281.231 95.26 281.947 95.26C282.662 95.26 283.281 95.1537 283.803 94.941C284.344 94.709 284.798 94.419 285.166 94.071C285.552 93.7037 285.852 93.288 286.065 92.824C286.297 92.36 286.451 91.8767 286.529 91.374L288.791 91.896ZM313.835 86.328C313.835 87.024 314.125 87.5557 314.705 87.923C315.305 88.2903 316.387 88.532 317.953 88.648C319.635 88.7833 320.911 89.1893 321.781 89.866C322.671 90.5233 323.115 91.49 323.115 92.766V92.94C323.115 93.636 322.97 94.2643 322.68 94.825C322.41 95.3663 322.023 95.8303 321.52 96.217C321.037 96.6037 320.438 96.8937 319.722 97.087C319.026 97.2997 318.263 97.406 317.431 97.406C316.31 97.406 315.343 97.261 314.531 96.971C313.739 96.6617 313.072 96.2653 312.53 95.782C312.008 95.2793 311.612 94.7187 311.341 94.1C311.071 93.462 310.916 92.824 310.877 92.186L313.023 91.664C313.12 92.766 313.545 93.6553 314.299 94.332C315.053 94.9893 316.059 95.318 317.315 95.318C318.379 95.318 319.229 95.115 319.867 94.709C320.525 94.2837 320.853 93.694 320.853 92.94C320.853 92.128 320.534 91.548 319.896 91.2C319.258 90.852 318.224 90.6297 316.793 90.533C315.131 90.417 313.855 90.0303 312.965 89.373C312.076 88.7157 311.631 87.7587 311.631 86.502V86.328C311.631 85.6513 311.776 85.0617 312.066 84.559C312.356 84.037 312.743 83.602 313.226 83.254C313.729 82.906 314.29 82.645 314.908 82.471C315.527 82.297 316.175 82.21 316.851 82.21C317.799 82.21 318.63 82.3453 319.345 82.616C320.061 82.8673 320.66 83.2057 321.143 83.631C321.627 84.037 321.994 84.5107 322.245 85.052C322.516 85.5933 322.69 86.1347 322.767 86.676L320.621 87.198C320.525 86.27 320.148 85.545 319.49 85.023C318.852 84.501 318.011 84.24 316.967 84.24C316.561 84.24 316.165 84.2883 315.778 84.385C315.411 84.4623 315.082 84.588 314.792 84.762C314.502 84.936 314.27 85.1583 314.096 85.429C313.922 85.6803 313.835 85.98 313.835 86.328ZM328.112 82.616H332.636V76.7H334.898V82.616H340.466V84.704H334.898V94.042C334.898 94.622 335.159 94.912 335.681 94.912H339.77V97H334.869C334.212 97 333.67 96.7873 333.245 96.362C332.839 95.9367 332.636 95.3953 332.636 94.738V84.704H328.112V82.616ZM356.802 94.564H356.454C355.99 95.5307 355.342 96.246 354.511 96.71C353.699 97.174 352.839 97.406 351.93 97.406C350.983 97.406 350.103 97.2513 349.291 96.942C348.479 96.6133 347.764 96.1397 347.145 95.521C346.546 94.883 346.072 94.1097 345.724 93.201C345.376 92.2923 345.202 91.2387 345.202 90.04V89.576C345.202 88.3967 345.376 87.3527 345.724 86.444C346.072 85.5353 346.546 84.7717 347.145 84.153C347.764 83.515 348.479 83.0317 349.291 82.703C350.103 82.3743 350.963 82.21 351.872 82.21C352.858 82.21 353.747 82.4323 354.54 82.877C355.352 83.3023 355.99 83.9693 356.454 84.878H356.802V82.616H359.064V94.042C359.064 94.622 359.325 94.912 359.847 94.912H360.572V97H359.035C358.378 97 357.836 96.7873 357.411 96.362C357.005 95.9367 356.802 95.3953 356.802 94.738V94.564ZM352.162 95.26C352.839 95.26 353.457 95.1343 354.018 94.883C354.598 94.6317 355.091 94.274 355.497 93.81C355.903 93.346 356.222 92.795 356.454 92.157C356.686 91.4997 356.802 90.7747 356.802 89.982V89.634C356.802 88.8607 356.686 88.155 356.454 87.517C356.222 86.8597 355.893 86.299 355.468 85.835C355.062 85.371 354.569 85.0133 353.989 84.762C353.428 84.4913 352.819 84.356 352.162 84.356C351.485 84.356 350.867 84.4817 350.306 84.733C349.745 84.9843 349.252 85.342 348.827 85.806C348.421 86.2507 348.102 86.8017 347.87 87.459C347.638 88.097 347.522 88.8027 347.522 89.576V90.04C347.522 91.6833 347.947 92.969 348.798 93.897C349.668 94.8057 350.789 95.26 352.162 95.26ZM363.626 82.616H368.15V76.7H370.412V82.616H375.98V84.704H370.412V94.042C370.412 94.622 370.673 94.912 371.195 94.912H375.284V97H370.383C369.725 97 369.184 96.7873 368.759 96.362C368.353 95.9367 368.15 95.3953 368.15 94.738V84.704H363.626V82.616ZM386.342 78.324C386.342 77.7633 386.535 77.2897 386.922 76.903C387.328 76.497 387.811 76.294 388.372 76.294C388.932 76.294 389.406 76.497 389.793 76.903C390.199 77.2897 390.402 77.7633 390.402 78.324C390.402 78.8847 390.199 79.368 389.793 79.774C389.406 80.1607 388.932 80.354 388.372 80.354C387.811 80.354 387.328 80.1607 386.922 79.774C386.535 79.368 386.342 78.8847 386.342 78.324ZM382.224 94.912H387.27V84.704H382.746V82.616H389.532V94.912H394.23V97H382.224V94.912ZM413.088 91.896C412.934 92.6887 412.663 93.4233 412.276 94.1C411.909 94.7767 411.435 95.3663 410.855 95.869C410.275 96.3523 409.599 96.7293 408.825 97C408.052 97.2707 407.192 97.406 406.244 97.406C405.239 97.406 404.282 97.2417 403.373 96.913C402.484 96.5843 401.701 96.1107 401.024 95.492C400.348 94.854 399.806 94.0807 399.4 93.172C399.014 92.2633 398.82 91.2193 398.82 90.04V89.692C398.82 88.532 399.014 87.488 399.4 86.56C399.806 85.632 400.348 84.849 401.024 84.211C401.701 83.573 402.484 83.08 403.373 82.732C404.282 82.384 405.239 82.21 406.244 82.21C407.153 82.21 407.994 82.3453 408.767 82.616C409.541 82.8867 410.217 83.2733 410.797 83.776C411.397 84.2593 411.88 84.8393 412.247 85.516C412.634 86.1927 412.895 86.9273 413.03 87.72L410.768 88.242C410.71 87.7393 410.565 87.256 410.333 86.792C410.121 86.3087 409.821 85.893 409.434 85.545C409.067 85.1777 408.613 84.8877 408.071 84.675C407.53 84.4623 406.902 84.356 406.186 84.356C405.49 84.356 404.833 84.4913 404.214 84.762C403.615 85.0133 403.083 85.3807 402.619 85.864C402.155 86.328 401.788 86.8887 401.517 87.546C401.266 88.2033 401.14 88.9187 401.14 89.692V90.04C401.14 90.852 401.266 91.5867 401.517 92.244C401.788 92.882 402.155 93.4233 402.619 93.868C403.083 94.3127 403.625 94.6607 404.243 94.912C404.862 95.144 405.529 95.26 406.244 95.26C406.96 95.26 407.578 95.1537 408.1 94.941C408.642 94.709 409.096 94.419 409.463 94.071C409.85 93.7037 410.15 93.288 410.362 92.824C410.594 92.36 410.749 91.8767 410.826 91.374L413.088 91.896ZM443.701 97H439.235L434.218 82.616H436.886L441.294 95.956H441.642L446.05 82.616H448.718L443.701 97ZM466.475 89.982C466.475 91.1807 466.272 92.244 465.866 93.172C465.479 94.0807 464.957 94.854 464.3 95.492C463.643 96.1107 462.869 96.5843 461.98 96.913C461.11 97.2417 460.201 97.406 459.254 97.406C458.287 97.406 457.369 97.2417 456.499 96.913C455.629 96.5843 454.865 96.1107 454.208 95.492C453.551 94.854 453.019 94.0807 452.613 93.172C452.226 92.244 452.033 91.1807 452.033 89.982V89.634C452.033 88.4547 452.226 87.4107 452.613 86.502C453.019 85.574 453.551 84.791 454.208 84.153C454.885 83.515 455.658 83.0317 456.528 82.703C457.398 82.3743 458.307 82.21 459.254 82.21C460.201 82.21 461.11 82.3743 461.98 82.703C462.85 83.0317 463.614 83.515 464.271 84.153C464.948 84.791 465.479 85.574 465.866 86.502C466.272 87.4107 466.475 88.4547 466.475 89.634V89.982ZM459.254 95.26C459.95 95.26 460.588 95.144 461.168 94.912C461.767 94.6607 462.289 94.303 462.734 93.839C463.179 93.375 463.527 92.824 463.778 92.186C464.029 91.5287 464.155 90.794 464.155 89.982V89.634C464.155 88.8607 464.029 88.155 463.778 87.517C463.527 86.8597 463.179 86.299 462.734 85.835C462.289 85.371 461.767 85.0133 461.168 84.762C460.569 84.4913 459.931 84.356 459.254 84.356C458.577 84.356 457.939 84.4913 457.34 84.762C456.741 85.0133 456.219 85.371 455.774 85.835C455.329 86.299 454.981 86.8597 454.73 87.517C454.479 88.155 454.353 88.8607 454.353 89.634V89.982C454.353 90.794 454.479 91.5287 454.73 92.186C454.981 92.824 455.329 93.375 455.774 93.839C456.219 94.303 456.731 94.6607 457.311 94.912C457.91 95.144 458.558 95.26 459.254 95.26ZM475.126 78.324C475.126 77.7633 475.319 77.2897 475.706 76.903C476.112 76.497 476.595 76.294 477.156 76.294C477.716 76.294 478.19 76.497 478.577 76.903C478.983 77.2897 479.186 77.7633 479.186 78.324C479.186 78.8847 478.983 79.368 478.577 79.774C478.19 80.1607 477.716 80.354 477.156 80.354C476.595 80.354 476.112 80.1607 475.706 79.774C475.319 79.368 475.126 78.8847 475.126 78.324ZM471.008 94.912H476.054V84.704H471.53V82.616H478.316V94.912H483.014V97H471.008V94.912ZM499.553 94.796H499.205C498.973 95.2407 498.673 95.6273 498.306 95.956C497.958 96.2847 497.571 96.5553 497.146 96.768C496.74 96.9807 496.305 97.1353 495.841 97.232C495.377 97.348 494.932 97.406 494.507 97.406C493.54 97.406 492.641 97.2417 491.81 96.913C490.978 96.5843 490.244 96.1107 489.606 95.492C488.987 94.8733 488.494 94.1097 488.127 93.201C487.779 92.273 487.605 91.2193 487.605 90.04V89.576C487.605 88.416 487.788 87.3817 488.156 86.473C488.523 85.545 489.016 84.7717 489.635 84.153C490.253 83.515 490.978 83.0317 491.81 82.703C492.641 82.3743 493.521 82.21 494.449 82.21C495.435 82.21 496.353 82.4323 497.204 82.877C498.074 83.3023 498.741 83.9693 499.205 84.878H499.553V76.7H501.815V97H499.553V94.796ZM494.739 95.26C495.415 95.26 496.044 95.1343 496.624 94.883C497.204 94.6317 497.706 94.274 498.132 93.81C498.576 93.346 498.924 92.795 499.176 92.157C499.427 91.4997 499.553 90.7747 499.553 89.982V89.634C499.553 88.8607 499.427 88.155 499.176 87.517C498.924 86.8597 498.576 86.299 498.132 85.835C497.706 85.371 497.194 85.0133 496.595 84.762C496.015 84.4913 495.396 84.356 494.739 84.356C494.062 84.356 493.424 84.4817 492.825 84.733C492.245 84.9843 491.732 85.342 491.288 85.806C490.862 86.27 490.524 86.821 490.273 87.459C490.041 88.097 489.925 88.8027 489.925 89.576V90.04C489.925 90.852 490.041 91.577 490.273 92.215C490.524 92.853 490.862 93.404 491.288 93.868C491.732 94.3127 492.245 94.6607 492.825 94.912C493.405 95.144 494.043 95.26 494.739 95.26Z"
          fill="#5C87FF"/>
    <path d="M221.281 33.7H235.549V35.962H229.633V54H227.197V35.962H221.281V33.7ZM241.474 47.504C241.532 48.9347 241.977 50.085 242.808 50.955C243.639 51.825 244.799 52.26 246.288 52.26C246.965 52.26 247.554 52.1827 248.057 52.028C248.56 51.8733 248.985 51.6607 249.333 51.39C249.7 51.1193 249.99 50.81 250.203 50.462C250.435 50.0947 250.619 49.708 250.754 49.302L252.9 49.882C252.494 51.216 251.74 52.3083 250.638 53.159C249.555 53.9903 248.086 54.406 246.23 54.406C245.205 54.406 244.258 54.232 243.388 53.884C242.537 53.5167 241.803 53.0043 241.184 52.347C240.565 51.6897 240.082 50.9067 239.734 49.998C239.386 49.0893 239.212 48.084 239.212 46.982V46.286C239.212 45.2807 239.386 44.343 239.734 43.473C240.101 42.603 240.604 41.8587 241.242 41.24C241.88 40.602 242.624 40.109 243.475 39.761C244.345 39.3937 245.283 39.21 246.288 39.21C247.467 39.21 248.482 39.4323 249.333 39.877C250.203 40.3023 250.909 40.834 251.45 41.472C252.011 42.11 252.417 42.806 252.668 43.56C252.939 44.314 253.074 45.01 253.074 45.648V47.504H241.474ZM246.288 41.356C245.65 41.356 245.051 41.4623 244.49 41.675C243.949 41.8683 243.465 42.1487 243.04 42.516C242.634 42.8833 242.296 43.3183 242.025 43.821C241.774 44.3043 241.609 44.836 241.532 45.416H250.812C250.773 44.7973 250.619 44.2367 250.348 43.734C250.097 43.2313 249.758 42.806 249.333 42.458C248.927 42.11 248.453 41.8393 247.912 41.646C247.39 41.4527 246.849 41.356 246.288 41.356ZM260.565 43.328C260.565 44.024 260.855 44.5557 261.435 44.923C262.034 45.2903 263.117 45.532 264.683 45.648C266.365 45.7833 267.641 46.1893 268.511 46.866C269.4 47.5233 269.845 48.49 269.845 49.766V49.94C269.845 50.636 269.7 51.2643 269.41 51.825C269.139 52.3663 268.752 52.8303 268.25 53.217C267.766 53.6037 267.167 53.8937 266.452 54.087C265.756 54.2997 264.992 54.406 264.161 54.406C263.039 54.406 262.073 54.261 261.261 53.971C260.468 53.6617 259.801 53.2653 259.26 52.782C258.738 52.2793 258.341 51.7187 258.071 51.1C257.8 50.462 257.645 49.824 257.607 49.186L259.753 48.664C259.849 49.766 260.275 50.6553 261.029 51.332C261.783 51.9893 262.788 52.318 264.045 52.318C265.108 52.318 265.959 52.115 266.597 51.709C267.254 51.2837 267.583 50.694 267.583 49.94C267.583 49.128 267.264 48.548 266.626 48.2C265.988 47.852 264.953 47.6297 263.523 47.533C261.86 47.417 260.584 47.0303 259.695 46.373C258.805 45.7157 258.361 44.7587 258.361 43.502V43.328C258.361 42.6513 258.506 42.0617 258.796 41.559C259.086 41.037 259.472 40.602 259.956 40.254C260.458 39.906 261.019 39.645 261.638 39.471C262.256 39.297 262.904 39.21 263.581 39.21C264.528 39.21 265.359 39.3453 266.075 39.616C266.79 39.8673 267.389 40.2057 267.873 40.631C268.356 41.037 268.723 41.5107 268.975 42.052C269.245 42.5933 269.419 43.1347 269.497 43.676L267.351 44.198C267.254 43.27 266.877 42.545 266.22 42.023C265.582 41.501 264.741 41.24 263.697 41.24C263.291 41.24 262.894 41.2883 262.508 41.385C262.14 41.4623 261.812 41.588 261.522 41.762C261.232 41.936 261 42.1583 260.826 42.429C260.652 42.6803 260.565 42.98 260.565 43.328ZM274.842 39.616H279.366V33.7H281.628V39.616H287.196V41.704H281.628V51.042C281.628 51.622 281.889 51.912 282.411 51.912H286.5V54H281.599C280.941 54 280.4 53.7873 279.975 53.362C279.569 52.9367 279.366 52.3953 279.366 51.738V41.704H274.842V39.616ZM316.387 31.438C316.387 30.7807 316.59 30.2393 316.996 29.814C317.422 29.3887 317.963 29.176 318.62 29.176H321.433V31.264H319.432C318.91 31.264 318.649 31.554 318.649 32.134V41.414C318.649 42.0713 318.437 42.6127 318.011 43.038C317.605 43.4633 317.064 43.676 316.387 43.676H316.039V44.024H316.387C317.064 44.024 317.605 44.2367 318.011 44.662C318.437 45.0873 318.649 45.6287 318.649 46.286V55.566C318.649 56.146 318.91 56.436 319.432 56.436H321.433V58.524H318.62C317.963 58.524 317.422 58.3113 316.996 57.886C316.59 57.4607 316.387 56.9193 316.387 56.262V46.257C316.387 45.6963 316.126 45.416 315.604 45.416H314.125V42.284H315.604C316.126 42.284 316.387 42.0037 316.387 41.443V31.438ZM250.957 125.558C250.957 124.901 250.822 124.321 250.551 123.818C250.3 123.315 249.952 122.9 249.507 122.571C249.062 122.242 248.55 121.991 247.97 121.817C247.39 121.643 246.781 121.556 246.143 121.556C245.582 121.556 245.051 121.633 244.548 121.788C244.045 121.923 243.591 122.126 243.185 122.397C242.798 122.668 242.489 123.006 242.257 123.412C242.025 123.799 241.909 124.253 241.909 124.775V124.949C241.909 125.51 242.025 125.993 242.257 126.399C242.489 126.786 242.827 127.124 243.272 127.414C243.736 127.685 244.306 127.917 244.983 128.11C245.66 128.284 246.452 128.439 247.361 128.574C249.488 128.903 251.054 129.531 252.059 130.459C253.064 131.368 253.567 132.595 253.567 134.142V134.49C253.567 135.36 253.412 136.162 253.103 136.897C252.813 137.612 252.368 138.231 251.769 138.753C251.189 139.275 250.464 139.681 249.594 139.971C248.724 140.261 247.719 140.406 246.578 140.406C245.283 140.406 244.132 140.222 243.127 139.855C242.141 139.468 241.31 138.946 240.633 138.289C239.976 137.612 239.473 136.829 239.125 135.94C238.777 135.031 238.603 134.045 238.603 132.982V132.112H241.039V132.808C241.039 134.587 241.522 135.921 242.489 136.81C243.475 137.699 244.838 138.144 246.578 138.144C248.086 138.144 249.217 137.815 249.971 137.158C250.744 136.481 251.131 135.592 251.131 134.49V134.316C251.131 133.253 250.735 132.441 249.942 131.88C249.169 131.319 247.902 130.913 246.143 130.662C245.118 130.527 244.19 130.324 243.359 130.053C242.547 129.763 241.851 129.396 241.271 128.951C240.691 128.487 240.246 127.936 239.937 127.298C239.628 126.66 239.473 125.906 239.473 125.036V124.688C239.473 123.895 239.637 123.17 239.966 122.513C240.295 121.856 240.749 121.285 241.329 120.802C241.928 120.319 242.634 119.951 243.446 119.7C244.277 119.429 245.186 119.294 246.172 119.294C247.313 119.294 248.328 119.458 249.217 119.787C250.126 120.116 250.889 120.56 251.508 121.121C252.127 121.662 252.591 122.31 252.9 123.064C253.229 123.799 253.393 124.572 253.393 125.384V126.602H250.957V125.558ZM268.018 137.39H267.67C267.206 138.318 266.597 139.053 265.843 139.594C265.089 140.135 264.132 140.406 262.972 140.406C262.179 140.406 261.444 140.271 260.768 140C260.11 139.749 259.54 139.362 259.057 138.84C258.593 138.318 258.225 137.67 257.955 136.897C257.703 136.124 257.578 135.225 257.578 134.2V125.616H259.84V133.91C259.84 135.418 260.149 136.52 260.768 137.216C261.386 137.912 262.334 138.26 263.61 138.26C264.982 138.26 266.055 137.796 266.829 136.868C267.621 135.921 268.018 134.664 268.018 133.098V125.616H270.28V143.538C270.28 144.195 270.067 144.737 269.642 145.162C269.236 145.587 268.704 145.8 268.047 145.8H259.84V143.712H267.235C267.757 143.712 268.018 143.422 268.018 142.842V137.39ZM278.322 129.328C278.322 130.024 278.612 130.556 279.192 130.923C279.791 131.29 280.874 131.532 282.44 131.648C284.122 131.783 285.398 132.189 286.268 132.866C287.157 133.523 287.602 134.49 287.602 135.766V135.94C287.602 136.636 287.457 137.264 287.167 137.825C286.896 138.366 286.509 138.83 286.007 139.217C285.523 139.604 284.924 139.894 284.209 140.087C283.513 140.3 282.749 140.406 281.918 140.406C280.796 140.406 279.83 140.261 279.018 139.971C278.225 139.662 277.558 139.265 277.017 138.782C276.495 138.279 276.098 137.719 275.828 137.1C275.557 136.462 275.402 135.824 275.364 135.186L277.51 134.664C277.606 135.766 278.032 136.655 278.786 137.332C279.54 137.989 280.545 138.318 281.802 138.318C282.865 138.318 283.716 138.115 284.354 137.709C285.011 137.284 285.34 136.694 285.34 135.94C285.34 135.128 285.021 134.548 284.383 134.2C283.745 133.852 282.71 133.63 281.28 133.533C279.617 133.417 278.341 133.03 277.452 132.373C276.562 131.716 276.118 130.759 276.118 129.502V129.328C276.118 128.651 276.263 128.062 276.553 127.559C276.843 127.037 277.229 126.602 277.713 126.254C278.215 125.906 278.776 125.645 279.395 125.471C280.013 125.297 280.661 125.21 281.338 125.21C282.285 125.21 283.116 125.345 283.832 125.616C284.547 125.867 285.146 126.206 285.63 126.631C286.113 127.037 286.48 127.511 286.732 128.052C287.002 128.593 287.176 129.135 287.254 129.676L285.108 130.198C285.011 129.27 284.634 128.545 283.977 128.023C283.339 127.501 282.498 127.24 281.454 127.24C281.048 127.24 280.651 127.288 280.265 127.385C279.897 127.462 279.569 127.588 279.279 127.762C278.989 127.936 278.757 128.158 278.583 128.429C278.409 128.68 278.322 128.98 278.322 129.328ZM292.598 125.616H297.122V119.7H299.384V125.616H304.952V127.704H299.384V137.042C299.384 137.622 299.645 137.912 300.167 137.912H304.256V140H299.355C298.698 140 298.157 139.787 297.731 139.362C297.325 138.937 297.122 138.395 297.122 137.738V127.704H292.598V125.616ZM312.501 133.504C312.559 134.935 313.004 136.085 313.835 136.955C314.667 137.825 315.827 138.26 317.315 138.26C317.992 138.26 318.582 138.183 319.084 138.028C319.587 137.873 320.012 137.661 320.36 137.39C320.728 137.119 321.018 136.81 321.23 136.462C321.462 136.095 321.646 135.708 321.781 135.302L323.927 135.882C323.521 137.216 322.767 138.308 321.665 139.159C320.583 139.99 319.113 140.406 317.257 140.406C316.233 140.406 315.285 140.232 314.415 139.884C313.565 139.517 312.83 139.004 312.211 138.347C311.593 137.69 311.109 136.907 310.761 135.998C310.413 135.089 310.239 134.084 310.239 132.982V132.286C310.239 131.281 310.413 130.343 310.761 129.473C311.129 128.603 311.631 127.859 312.269 127.24C312.907 126.602 313.652 126.109 314.502 125.761C315.372 125.394 316.31 125.21 317.315 125.21C318.495 125.21 319.51 125.432 320.36 125.877C321.23 126.302 321.936 126.834 322.477 127.472C323.038 128.11 323.444 128.806 323.695 129.56C323.966 130.314 324.101 131.01 324.101 131.648V133.504H312.501ZM317.315 127.356C316.677 127.356 316.078 127.462 315.517 127.675C314.976 127.868 314.493 128.149 314.067 128.516C313.661 128.883 313.323 129.318 313.052 129.821C312.801 130.304 312.637 130.836 312.559 131.416H321.839C321.801 130.797 321.646 130.237 321.375 129.734C321.124 129.231 320.786 128.806 320.36 128.458C319.954 128.11 319.481 127.839 318.939 127.646C318.417 127.453 317.876 127.356 317.315 127.356ZM342.438 140H340.176V129.676C340.176 128.999 340.021 128.448 339.712 128.023C339.403 127.578 338.91 127.356 338.233 127.356C337.595 127.356 337.073 127.598 336.667 128.081C336.28 128.545 336.087 129.27 336.087 130.256V140H333.825V129.56C333.825 128.922 333.651 128.4 333.303 127.994C332.955 127.569 332.491 127.356 331.911 127.356C331.215 127.356 330.674 127.607 330.287 128.11C329.92 128.613 329.736 129.27 329.736 130.082V140H327.474V125.616H329.736V127.182H330.084C330.335 126.505 330.703 126.012 331.186 125.703C331.669 125.374 332.24 125.21 332.897 125.21C333.593 125.21 334.163 125.394 334.608 125.761C335.072 126.128 335.391 126.602 335.565 127.182H335.913C336.57 125.867 337.614 125.21 339.045 125.21C340.128 125.21 340.959 125.558 341.539 126.254C342.138 126.931 342.438 127.82 342.438 128.922V140ZM350.683 138.376C350.683 137.815 350.876 137.342 351.263 136.955C351.669 136.549 352.152 136.346 352.713 136.346C353.274 136.346 353.747 136.549 354.134 136.955C354.54 137.342 354.743 137.815 354.743 138.376C354.743 138.937 354.54 139.42 354.134 139.826C353.747 140.213 353.274 140.406 352.713 140.406C352.152 140.406 351.669 140.213 351.263 139.826C350.876 139.42 350.683 138.937 350.683 138.376ZM421.71 138.376C421.71 137.815 421.904 137.342 422.29 136.955C422.696 136.549 423.18 136.346 423.74 136.346C424.301 136.346 424.775 136.549 425.161 136.955C425.567 137.342 425.77 137.815 425.77 138.376C425.77 138.937 425.567 139.42 425.161 139.826C424.775 140.213 424.301 140.406 423.74 140.406C423.18 140.406 422.696 140.213 422.29 139.826C421.904 139.42 421.71 138.937 421.71 138.376ZM436.886 145.8H434.624V125.616H436.886V127.878H437.234C437.737 127.008 438.433 126.351 439.322 125.906C440.211 125.442 441.178 125.21 442.222 125.21C443.111 125.21 443.952 125.374 444.745 125.703C445.538 126.032 446.234 126.505 446.833 127.124C447.452 127.743 447.935 128.506 448.283 129.415C448.65 130.324 448.834 131.358 448.834 132.518V133.098C448.834 134.277 448.66 135.321 448.312 136.23C447.964 137.139 447.481 137.902 446.862 138.521C446.263 139.14 445.557 139.613 444.745 139.942C443.933 140.251 443.073 140.406 442.164 140.406C441.7 140.406 441.226 140.348 440.743 140.232C440.26 140.135 439.796 139.981 439.351 139.768C438.926 139.536 438.529 139.265 438.162 138.956C437.795 138.627 437.485 138.241 437.234 137.796H436.886V145.8ZM441.7 138.26C442.396 138.26 443.034 138.144 443.614 137.912C444.194 137.661 444.697 137.313 445.122 136.868C445.567 136.423 445.905 135.882 446.137 135.244C446.388 134.606 446.514 133.891 446.514 133.098V132.518C446.514 131.745 446.388 131.049 446.137 130.43C445.905 129.792 445.567 129.251 445.122 128.806C444.697 128.342 444.184 127.984 443.585 127.733C443.005 127.482 442.377 127.356 441.7 127.356C441.023 127.356 440.395 127.491 439.815 127.762C439.235 128.013 438.723 128.371 438.278 128.835C437.853 129.299 437.514 129.86 437.263 130.517C437.012 131.155 436.886 131.861 436.886 132.634V132.982C436.886 133.775 437.012 134.5 437.263 135.157C437.514 135.795 437.853 136.346 438.278 136.81C438.723 137.274 439.235 137.632 439.815 137.883C440.395 138.134 441.023 138.26 441.7 138.26ZM452.091 125.616H457.311V127.53H457.659C458.026 126.737 458.548 126.157 459.225 125.79C459.902 125.403 460.675 125.21 461.545 125.21C462.995 125.21 464.165 125.684 465.054 126.631C465.943 127.578 466.417 128.961 466.475 130.778L464.097 131.126C464.097 129.792 463.778 128.835 463.14 128.255C462.502 127.656 461.719 127.356 460.791 127.356C460.192 127.356 459.67 127.472 459.225 127.704C458.8 127.936 458.442 128.255 458.152 128.661C457.862 129.067 457.649 129.541 457.514 130.082C457.379 130.623 457.311 131.203 457.311 131.822V137.912H460.965V140H451.743V137.912H455.049V127.704H452.091V125.616ZM475.126 121.324C475.126 120.763 475.319 120.29 475.706 119.903C476.112 119.497 476.595 119.294 477.156 119.294C477.716 119.294 478.19 119.497 478.577 119.903C478.983 120.29 479.186 120.763 479.186 121.324C479.186 121.885 478.983 122.368 478.577 122.774C478.19 123.161 477.716 123.354 477.156 123.354C476.595 123.354 476.112 123.161 475.706 122.774C475.319 122.368 475.126 121.885 475.126 121.324ZM471.008 137.912H476.054V127.704H471.53V125.616H478.316V137.912H483.014V140H471.008V137.912ZM490.679 140H488.417V125.616H490.679V128.052H491.027C491.916 126.157 493.463 125.21 495.667 125.21C497.329 125.21 498.654 125.732 499.64 126.776C500.626 127.801 501.119 129.347 501.119 131.416V140H498.857V131.88C498.857 130.372 498.518 129.241 497.842 128.487C497.165 127.733 496.247 127.356 495.087 127.356C493.714 127.356 492.631 127.83 491.839 128.777C491.065 129.705 490.679 130.952 490.679 132.518V140ZM193.713 170.443C193.713 171.004 193.974 171.284 194.496 171.284H195.975V174.416H194.496C193.974 174.416 193.713 174.696 193.713 175.257V185.262C193.713 185.919 193.501 186.461 193.075 186.886C192.669 187.311 192.138 187.524 191.48 187.524H188.667V185.436H190.668C191.19 185.436 191.451 185.146 191.451 184.566V175.286C191.451 174.629 191.654 174.087 192.06 173.662C192.486 173.237 193.037 173.024 193.713 173.024H194.061V172.676H193.713C193.037 172.676 192.486 172.463 192.06 172.038C191.654 171.613 191.451 171.071 191.451 170.414V161.134C191.451 160.554 191.19 160.264 190.668 160.264H188.667V158.176H191.48C192.138 158.176 192.669 158.389 193.075 158.814C193.501 159.239 193.713 159.781 193.713 160.438V170.443ZM122.686 213.443C122.686 214.004 122.947 214.284 123.469 214.284H124.948V217.416H123.469C122.947 217.416 122.686 217.696 122.686 218.257V228.262C122.686 228.919 122.473 229.461 122.048 229.886C121.642 230.311 121.11 230.524 120.453 230.524H117.64V228.436H119.641C120.163 228.436 120.424 228.146 120.424 227.566V218.286C120.424 217.629 120.627 217.087 121.033 216.662C121.458 216.237 122.009 216.024 122.686 216.024H123.034V215.676H122.686C122.009 215.676 121.458 215.463 121.033 215.038C120.627 214.613 120.424 214.071 120.424 213.414V204.134C120.424 203.554 120.163 203.264 119.641 203.264H117.64V201.176H120.453C121.11 201.176 121.642 201.389 122.048 201.814C122.473 202.239 122.686 202.781 122.686 203.438V213.443Z"
          fill="#393939"/>
    <path d="M377.691 132.982C377.691 134.181 377.488 135.244 377.082 136.172C376.695 137.081 376.173 137.854 375.516 138.492C374.858 139.111 374.085 139.584 373.196 139.913C372.326 140.242 371.417 140.406 370.47 140.406C369.503 140.406 368.585 140.242 367.715 139.913C366.845 139.584 366.081 139.111 365.424 138.492C364.766 137.854 364.235 137.081 363.829 136.172C363.442 135.244 363.249 134.181 363.249 132.982V132.634C363.249 131.455 363.442 130.411 363.829 129.502C364.235 128.574 364.766 127.791 365.424 127.153C366.1 126.515 366.874 126.032 367.744 125.703C368.614 125.374 369.522 125.21 370.47 125.21C371.417 125.21 372.326 125.374 373.196 125.703C374.066 126.032 374.829 126.515 375.487 127.153C376.163 127.791 376.695 128.574 377.082 129.502C377.488 130.411 377.691 131.455 377.691 132.634V132.982ZM370.47 138.26C371.166 138.26 371.804 138.144 372.384 137.912C372.983 137.661 373.505 137.303 373.95 136.839C374.394 136.375 374.742 135.824 374.994 135.186C375.245 134.529 375.371 133.794 375.371 132.982V132.634C375.371 131.861 375.245 131.155 374.994 130.517C374.742 129.86 374.394 129.299 373.95 128.835C373.505 128.371 372.983 128.013 372.384 127.762C371.784 127.491 371.146 127.356 370.47 127.356C369.793 127.356 369.155 127.491 368.556 127.762C367.956 128.013 367.434 128.371 366.99 128.835C366.545 129.299 366.197 129.86 365.946 130.517C365.694 131.155 365.569 131.861 365.569 132.634V132.982C365.569 133.794 365.694 134.529 365.946 135.186C366.197 135.824 366.545 136.375 366.99 136.839C367.434 137.303 367.947 137.661 368.527 137.912C369.126 138.144 369.774 138.26 370.47 138.26ZM392.142 125.616H394.404V140H392.142V137.39H391.794C391.33 138.318 390.721 139.053 389.967 139.594C389.213 140.135 388.256 140.406 387.096 140.406C386.303 140.406 385.568 140.271 384.892 140C384.234 139.749 383.664 139.362 383.181 138.84C382.717 138.318 382.349 137.67 382.079 136.897C381.827 136.124 381.702 135.225 381.702 134.2V125.616H383.964V133.91C383.964 135.418 384.273 136.52 384.892 137.216C385.51 137.912 386.458 138.26 387.734 138.26C389.106 138.26 390.179 137.796 390.953 136.868C391.745 135.921 392.142 134.664 392.142 133.098V125.616ZM399.139 125.616H403.663V119.7H405.925V125.616H411.493V127.704H405.925V137.042C405.925 137.622 406.186 137.912 406.708 137.912H410.797V140H405.896C405.239 140 404.698 139.787 404.272 139.362C403.866 138.937 403.663 138.395 403.663 137.738V127.704H399.139V125.616Z"
          fill="#EB2668"/>
</svg>
